<svg width="600" height="640" viewBox="0 0 600 640" fill="none" xmlns="http://www.w3.org/2000/svg">
<ellipse cx="194.5" cy="556" rx="169.5" ry="84" fill="url(#paint0_radial_6_9646)"/>
<path d="M409.443 299.643C408.215 294.907 405.518 290.055 402.251 286.304C400.076 283.811 397.67 281.81 395.253 280.64L350.578 259.105C328.926 248.675 307.565 239.667 286.571 232.137L267.916 225.439C260.705 222.848 256.007 227.014 256.404 235.675C256.761 243.746 261.391 253.624 267.674 260.854C270.023 263.551 272.604 265.88 275.3 267.611L278.78 269.843C293.704 279.413 308.396 286.807 322.528 291.881C328.511 294.037 334.368 295.748 340.1 297.043L403.227 311.339C408.795 312.605 411.501 307.53 409.443 299.643Z" fill="url(#paint1_linear_6_9646)"/>
<path d="M423.759 300.812C421.42 291.803 416.297 282.582 410.102 275.468C405.974 270.722 401.373 266.904 396.811 264.7L352.136 243.165C330.127 232.561 308.398 223.398 287.046 215.743L268.391 209.044C256.637 204.83 249.011 211.596 249.649 225.699C250.239 238.863 257.788 254.947 267.985 266.682C271.822 271.099 276.046 274.907 280.415 277.701L283.895 279.933C299.699 290.063 315.261 297.902 330.223 303.267C336.564 305.548 342.769 307.365 348.84 308.738L411.967 323.024C422.57 325.421 427.664 315.823 423.759 300.812ZM340.111 297.042C334.38 295.747 328.522 294.026 322.539 291.88C308.398 286.816 293.715 279.412 278.791 269.842L275.312 267.61C272.615 265.879 270.034 263.55 267.685 260.853C261.403 253.623 256.773 243.745 256.415 235.674C256.019 227.013 260.716 222.847 267.927 225.438L286.582 232.136C307.576 239.675 328.947 248.674 350.589 259.104L395.265 280.639C397.681 281.809 400.088 283.8 402.263 286.303C405.53 290.063 408.226 294.906 409.454 299.642C411.513 307.529 408.816 312.604 403.248 311.338L340.111 297.042Z" fill="url(#paint2_linear_6_9646)"/>
<path d="M441.566 289.861C439.227 280.853 434.104 271.632 427.908 264.518C423.781 259.772 419.18 255.954 414.618 253.75L369.942 232.214C347.933 221.601 326.205 212.448 304.853 204.792L286.198 198.094C281.133 196.277 276.841 196.499 273.642 198.471L255.847 209.422C259.047 207.451 263.348 207.228 268.403 209.045L287.058 215.744C308.41 223.409 330.129 232.562 352.148 243.166L396.823 264.701C401.385 266.905 405.986 270.723 410.114 275.469C416.309 282.593 421.432 291.804 423.771 300.813C426.488 311.281 424.844 319.11 420.002 322.077L437.797 311.136C442.629 308.159 444.282 300.329 441.566 289.861Z" fill="url(#paint3_linear_6_9646)"/>
<path d="M292.682 271.874C292.682 286.827 280.02 455.041 167.993 455.041C55.966 455.041 41.8442 277.992 41.8442 271.912C46.9768 271.922 292.682 271.874 292.682 271.874Z" fill="url(#paint4_linear_6_9646)"/>
<path d="M202.384 242.092C182.511 253.246 150.749 252.918 131.437 241.377C112.124 229.826 112.569 211.432 132.442 200.278C152.315 189.123 184.077 189.452 203.389 200.993C222.701 212.544 222.247 230.938 202.384 242.092Z" fill="#C0BACA"/>
<path d="M291.495 261.946C290.751 259.027 289.668 255.151 288.653 252.319C287.58 249.303 285.908 245.369 284.545 242.469C282.138 237.375 278.175 230.861 274.676 226.26C272.685 223.65 268.026 217.532 260.39 210.746C252.754 203.961 246.365 200.046 242.557 197.697C240.111 196.199 236.728 194.411 234.176 193.106C232.176 192.082 229.44 190.844 227.381 189.945C221.717 187.461 217.029 185.963 212.486 184.513C211.868 184.32 206.213 182.541 197.804 180.879C192.265 179.787 186.485 179.052 183.218 178.743C181.043 178.54 178.153 178.259 175.969 178.182C173.794 178.114 170.885 177.969 168.71 177.95C166.525 177.931 163.616 178.008 161.441 178.037C156.879 178.095 151.302 178.704 146.826 179.197C146.759 179.207 139.616 180.048 132.047 181.778C129.641 182.329 126.451 183.131 124.073 183.798C121.927 184.407 119.105 185.335 116.978 186.011C114.34 186.852 110.908 188.225 108.347 189.278C106.259 190.139 103.533 191.434 101.474 192.371C98.7197 193.628 95.1627 195.561 92.5819 197.137C88.7929 199.447 83.8343 202.685 80.316 205.391C76.8459 208.059 72.4093 211.896 69.3356 215.028C66.7548 217.648 63.4008 221.243 61.2163 224.201C59.9598 225.893 58.2199 228.106 57.0697 229.875C55.3202 232.572 53.1357 236.254 51.5408 239.048C50.0523 241.667 48.3705 245.34 47.2976 248.163C45.8284 252.019 44.2045 257.277 43.0736 261.25C37.8251 282.728 49.1824 305.365 77.3099 322.183C125.591 351.046 204.995 351.848 254.658 323.972C284.439 307.269 296.772 284.071 291.495 261.946ZM202.386 242.092C182.513 253.247 150.751 252.918 131.438 241.377C112.126 229.826 112.571 211.432 132.444 200.278C152.317 189.124 184.079 189.452 203.391 200.993C222.703 212.544 222.249 230.938 202.386 242.092Z" fill="url(#paint5_linear_6_9646)"/>
<path d="M195.774 451.135C187.287 453.658 178.047 455.04 167.994 455.04C84.7428 455.04 56.5862 355.405 47.8193 304.437C64.0966 292.113 82.6646 280.872 92.2338 275.304C96.2548 272.975 98.6905 271.621 98.6905 271.621C99.9374 272.646 101.088 273.874 102.122 275.304C119.636 299.246 108.453 376.602 120.448 412.578C130.762 443.547 161.267 453.271 195.774 451.135Z" fill="#EBEBEB"/>
<path d="M257.822 226.146C257.979 197.117 217.349 173.363 167.073 173.092C116.797 172.82 75.9133 196.133 75.7565 225.163C75.5997 254.193 116.229 277.946 166.505 278.217C216.781 278.489 257.665 255.176 257.822 226.146Z" fill="#D4D5E6"/>
<path d="M86.4182 235.037C89.26 236.767 93.136 238.932 96.1421 240.353C103.623 243.881 103.623 243.881 111.385 246.81C113.715 247.689 116.875 248.733 119.282 249.39C123.651 250.589 129.528 252.01 133.955 252.976C136.304 253.489 139.464 254.02 141.842 254.32C144.133 254.6 147.178 255.026 149.478 255.258C151.779 255.489 154.852 255.722 157.162 255.847C159.472 255.973 162.546 256.07 164.856 256.098C167.176 256.118 170.26 256.031 172.579 256.002C174.957 255.973 178.137 255.78 180.505 255.548C185.097 255.103 191.196 254.32 195.758 253.634C198.232 253.257 201.509 252.599 203.935 252.01C206.158 251.469 209.135 250.773 211.339 250.154C213.988 249.41 217.477 248.288 220.097 247.448C223.19 246.452 227.22 244.838 230.207 243.562C234.209 241.851 239.428 239.261 243.246 237.163C246.513 235.375 250.689 232.669 253.792 230.61C255.937 229.189 258.692 227.14 260.674 225.497C263.554 223.109 267.266 219.765 270.001 217.213C264.55 222.606 257.745 227.671 249.577 232.214C201.973 258.757 126.348 257.993 80.6768 230.503C74.1233 226.56 68.5461 222.287 63.9355 217.773C66.1684 219.89 69.2421 222.616 71.5812 224.617C72.6831 225.564 74.2393 226.724 75.3896 227.613C78.5599 230.03 83.0159 232.959 86.4182 235.037Z" fill="url(#paint6_linear_6_9646)"/>
<path d="M180.495 255.538C243.516 255.538 309.098 192.942 309.098 150.258C309.098 134.909 308.103 110.193 300.544 84.8204C287.08 39.6133 36.1356 61.9994 31.1093 94.1672C29.8914 101.968 29.6305 107.564 29.3115 109.43C27.6683 118.989 17.4419 172.934 56.2985 210.283C95.1551 247.631 132.726 255.538 180.495 255.538Z" fill="url(#paint7_linear_6_9646)"/>
<path d="M302.381 91.4898C301.569 88.3097 300.39 84.0857 299.288 81.0023C298.119 77.7159 296.301 73.434 294.813 70.2733C292.193 64.7251 287.873 57.6207 284.055 52.6138C281.89 49.7721 276.815 43.1123 268.502 35.718C260.19 28.3236 253.23 24.061 249.074 21.5092C246.416 19.8757 242.733 17.9329 239.95 16.512C237.765 15.4004 234.788 14.0569 232.546 13.071C226.379 10.3645 221.266 8.73102 216.326 7.1555C215.65 6.94285 209.493 5.00968 200.329 3.20217C194.298 2.01328 188.006 1.211 184.439 0.872699C182.071 0.650385 178.92 0.341082 176.542 0.263755C174.174 0.186429 171.003 0.0317717 168.635 0.00277423C166.257 -0.0165574 163.087 0.0704556 160.719 0.0994531C155.751 0.167114 149.681 0.824394 144.799 1.36568C144.722 1.37535 136.951 2.28391 128.706 4.16874C126.086 4.76802 122.607 5.64762 120.026 6.37255C117.687 7.02983 114.613 8.04474 112.303 8.77935C109.432 9.6976 105.691 11.1958 102.898 12.3364C100.617 13.274 97.6591 14.6852 95.4166 15.7097C92.4202 17.0823 88.5443 19.1798 85.7315 20.8906C81.6042 23.4037 76.201 26.9317 72.3733 29.8798C68.594 32.7892 63.7611 36.9649 60.4167 40.3769C57.6136 43.2283 53.9503 47.1526 51.5725 50.3617C50.2096 52.2078 48.3055 54.6146 47.0586 56.5381C45.1447 59.4669 42.7669 63.4879 41.0368 66.5326C39.4129 69.384 37.5861 73.3857 36.4165 76.4594C34.812 80.6544 33.0431 86.3959 31.8252 90.7165C26.1031 114.108 38.4753 138.765 69.116 157.082C121.698 188.515 208.178 189.385 262.278 159.035C294.697 140.863 308.132 115.587 302.381 91.4898Z" fill="url(#paint8_linear_6_9646)"/>
<path d="M303.58 137.46C303.861 146.111 303.513 151.012 302.14 156.328C297.22 172.673 284.162 187.674 261.921 200.075C224.176 221.128 171.323 227.449 124.618 219.262C110.051 215.976 104.59 214.748 97.4762 152.491C96.5193 134.986 102.531 133.72 107.867 134.57C153.19 148.479 210.731 144.69 249.8 122.904C275.279 108.695 287.854 89.6531 287.352 70.6888C287.38 70.3021 287.41 69.7898 287.439 69.4128C288.308 69.8865 288.879 70.1958 289.468 71.0464C289.468 71.0464 301.444 93.848 303.58 137.46Z" fill="#003447"/>
<path d="M228.321 200.404C225.595 200.404 223.73 200.104 223.498 200.065L224.483 194.189C224.628 194.218 238.857 196.412 245.69 186.881L250.533 190.351C244.347 198.983 234.275 200.404 228.321 200.404Z" fill="#00BBFF"/>
<path d="M187.485 197.196H185.706C181.753 197.196 177.983 195.601 175.093 192.701C171.903 189.502 170.077 184.978 170.096 180.3L170.115 175.148C170.144 166.14 176.727 158.726 185.107 158.262L186.818 158.165C190.829 157.962 194.695 159.354 197.74 162.148C201.036 165.173 203.008 169.571 203.153 174.22L203.317 179.604C203.462 184.437 201.684 189.125 198.436 192.479C195.459 195.514 191.583 197.196 187.485 197.196ZM187.61 166.468C187.494 166.468 187.378 166.468 187.262 166.478L185.551 166.574C181.646 166.787 178.447 170.644 178.437 175.167L178.418 180.319C178.408 182.803 179.346 185.172 180.98 186.815C181.907 187.752 183.483 188.864 185.696 188.864H187.475C189.292 188.864 191.051 188.081 192.424 186.66C194.115 184.92 195.034 182.436 194.956 179.846L194.792 174.471C194.715 172.055 193.729 169.793 192.076 168.285C190.81 167.096 189.234 166.468 187.61 166.468Z" fill="#00BBFF"/>
<path d="M267.121 168.748C265.691 168.748 264.26 168.41 262.897 167.743C259.06 165.858 256.276 161.615 255.261 156.086L254.314 150.944C252.738 142.428 255.851 133.41 261.554 129.978L262.723 129.273C265.536 127.572 268.706 127.34 271.635 128.616C275.482 130.288 278.333 134.338 279.474 139.712L280.595 145.019C282.519 154.124 279.107 163.78 272.824 166.999L271.587 167.637C270.147 168.381 268.629 168.748 267.121 168.748ZM267.827 136.155C267.614 136.155 267.353 136.223 267.015 136.426L265.845 137.131C263.458 138.571 261.525 144.139 262.501 149.436L263.448 154.578C264.028 157.739 265.439 159.711 266.57 160.271C266.928 160.445 267.256 160.503 267.769 160.233L269.006 159.595C271.567 158.28 273.626 152.374 272.437 146.749L271.316 141.442C270.697 138.504 269.354 136.725 268.31 136.271C268.175 136.213 268.02 136.155 267.827 136.155Z" fill="#00BBFF"/>
<path d="M59.9789 274.85C68.2625 279.625 74.4003 291.079 74.3133 302.997L74.2747 308.11C74.1007 330.052 71.8969 351.404 67.7019 371.692C65.9234 380.275 63.8066 388.646 61.3418 396.775L34.1615 486.339C31.7741 494.235 24.863 497.367 18.2516 493.53C11.6402 489.731 7.34855 480.133 8.39246 471.453L16.0865 406.653C19.8078 375.259 24.7953 344.435 31.0298 314.297L36.5587 287.522C38.6948 277.17 46.0022 271.158 54.4888 272.772C55.0687 274.077 58.2391 273.845 59.9789 274.85Z" fill="url(#paint9_linear_6_9646)"/>
<path d="M66.8418 259.115C63.9904 257.472 60.9939 256.312 57.8912 255.722C44.0594 253.103 32.1898 262.875 28.7004 279.742L23.1716 306.506C16.8405 337.147 11.7659 368.493 7.98661 400.419L0.292608 465.229C-1.66955 481.777 6.42073 499.89 19.0346 507.178C31.6485 514.457 44.7071 508.561 49.2693 493.511L76.4496 403.947C79.0594 395.335 81.3115 386.472 83.1867 377.386C87.6233 355.899 89.9624 333.29 90.1461 310.063L90.1847 304.941C90.349 285.561 80.3449 266.915 66.8418 259.115ZM67.702 371.683C65.9235 380.266 63.8067 388.637 61.3419 396.766L34.1616 486.329C31.7742 494.226 24.8631 497.358 18.2517 493.521C11.6403 489.722 7.34867 480.124 8.39257 471.444L16.0866 406.644C19.8079 375.25 24.7955 344.425 31.0299 314.287L36.5588 287.513C38.6949 277.161 46.0023 271.149 54.4889 272.763C55.0881 274.078 58.2489 273.846 59.9984 274.841C68.282 279.616 74.4198 291.07 74.3328 302.988L74.2941 308.101C74.1008 330.043 71.8873 351.394 67.702 371.683Z" fill="url(#paint10_linear_6_9646)"/>
<path d="M83.506 254.591C80.6546 252.948 77.6582 251.788 74.5555 251.198C71.0178 250.531 67.6154 250.667 64.445 251.527L47.7812 256.051C50.9515 255.19 54.3636 255.045 57.8916 255.722C60.9943 256.312 63.9907 257.471 66.8421 259.115C80.355 266.915 90.3494 285.56 90.1948 304.931L90.1561 310.053C89.9724 333.28 87.6333 355.889 83.1967 377.376C81.3215 386.462 79.0694 395.325 76.4596 403.938L49.2793 493.501C46.6309 502.22 41.1407 507.864 34.5293 509.662L51.1932 505.139C57.8046 503.341 63.2948 497.696 65.9432 488.977L93.1235 399.414C95.7333 390.802 97.9854 381.938 99.8606 372.852C104.297 351.365 106.636 328.757 106.82 305.53L106.868 300.407C107.013 281.037 97.0188 262.391 83.506 254.591Z" fill="url(#paint11_linear_6_9646)"/>
<path d="M521.081 167.647C565.292 143.008 600.621 164.582 599.992 215.821C599.364 267.06 563.021 328.573 518.809 353.211C474.598 377.849 439.269 356.275 439.897 305.036C440.526 253.798 476.879 192.285 521.081 167.647Z" fill="#D7D8E2"/>
<path d="M504.926 173.881C541.743 153.36 571.166 171.329 570.644 214.004C570.122 256.678 539.849 307.907 503.031 328.428C466.214 348.948 436.792 330.979 437.313 288.305C437.835 245.62 468.109 194.401 504.926 173.881Z" fill="#CDCEDB"/>
<path d="M472.604 186.341C494.642 174.065 512.253 184.814 511.934 210.351C511.625 235.888 493.501 266.548 471.463 278.833C449.425 291.109 431.814 280.36 432.133 254.823C432.452 229.286 450.566 198.626 472.604 186.341Z" fill="#B9BBCE"/>
<path d="M521.081 167.647C565.292 143.008 600.621 164.582 599.992 215.821C599.364 267.06 563.021 328.573 518.809 353.211C474.598 377.849 439.269 356.275 439.897 305.036C440.526 253.798 476.879 192.285 521.081 167.647Z" fill="url(#paint12_linear_6_9646)"/>
<path d="M390.718 354.777L404.956 346.503C407.71 344.909 409.257 341.835 408.919 338.664L401.36 269.796L382.589 280.699L390.718 354.777Z" fill="#B06DFF"/>
<path d="M382.597 280.699L401.358 269.786V226.599L382.597 237.502V280.699Z" fill="#7D1CF2"/>
<path d="M382.596 237.502L344.145 208.572C344.261 211.095 346.542 255.867 348.127 265.581C348.456 267.601 359.34 271.41 360.287 277.2C362.945 293.409 367.169 322.832 369.209 337.195C369.943 342.415 373.287 346.861 378.082 349.055C383.669 351.607 390.319 354.632 390.715 354.787L382.596 280.708V237.502Z" fill="#9640FF"/>
<path d="M379.822 130.82C375.405 130.346 370.263 131.535 364.753 134.599C347.896 143.995 334.035 167.453 333.794 186.998C333.716 193.687 335.244 199.061 337.969 202.85C341.372 207.576 344.774 212.303 348.177 217.039C344.987 212.603 343.199 206.32 343.295 198.471C343.576 175.582 359.814 148.112 379.552 137.103C385.999 133.507 392.03 132.115 397.211 132.666C391.412 132.048 385.622 131.439 379.822 130.82Z" fill="#B06DFF"/>
<path d="M462.891 160.63C461.885 160.185 460.552 159.596 459.546 159.151C457.536 158.272 454.858 157.092 452.858 156.203C450.847 155.324 448.179 154.144 446.169 153.255C445.164 152.81 443.83 152.221 442.825 151.786C440.814 150.906 438.137 149.727 436.136 148.838C434.125 147.958 431.448 146.779 429.447 145.89C428.442 145.445 427.108 144.855 426.103 144.411C424.092 143.531 421.415 142.352 419.414 141.463C417.403 140.583 414.726 139.404 412.725 138.524C411.72 138.08 410.386 137.49 409.381 137.045C407.37 136.166 404.693 134.987 402.692 134.097C396.516 131.381 388.445 132.155 379.571 137.103C359.824 148.103 343.595 175.583 343.315 198.472C343.189 209.133 346.543 216.924 352.159 221.08C371.742 235.598 391.315 250.107 410.898 264.625C404.374 259.792 400.479 250.745 400.624 238.363C400.952 211.772 419.81 179.855 442.757 167.068C453.061 161.326 462.446 160.417 469.618 163.578C467.579 162.689 464.901 161.519 462.891 160.63Z" fill="url(#paint13_linear_6_9646)"/>
<path d="M354.702 206.619C355.001 182.745 371.926 154.086 392.524 142.622C399.696 138.62 406.327 137.306 411.962 138.195C411.092 137.808 410.145 137.393 409.362 137.045C407.351 136.156 404.684 134.986 402.673 134.097C396.497 131.371 388.426 132.154 379.552 137.103C359.805 148.103 343.576 175.582 343.296 198.471C343.161 209.132 346.515 216.913 352.14 221.089C355.591 223.641 359.042 226.212 362.502 228.773C357.563 224.201 354.576 216.72 354.702 206.619Z" fill="url(#paint14_linear_6_9646)"/>
<path d="M446.334 246.917C446.131 263.368 457.479 270.298 471.668 262.382C485.867 254.475 497.534 234.718 497.737 218.267C497.94 201.816 486.592 194.886 472.403 202.802C458.204 210.709 446.537 230.456 446.334 246.917Z" fill="#A2A5B8"/>
<path d="M490.536 201.439C485.945 198.597 479.536 198.829 472.403 202.802C458.204 210.708 446.537 230.465 446.334 246.916C446.228 255.451 449.234 261.425 454.125 264.083C464.651 269.815 475.167 275.547 485.693 281.269C480.928 278.678 478.009 272.869 478.116 264.576C478.309 248.579 489.657 229.373 503.459 221.679C510.39 217.813 516.624 217.59 521.09 220.355C510.912 214.043 500.724 207.741 490.536 201.439Z" fill="url(#paint15_linear_6_9646)"/>
<path d="M537.58 239.821C537.358 239.541 537.068 239.174 536.836 238.893C536.391 238.342 535.801 237.598 535.357 237.047C534.912 236.487 534.322 235.752 533.878 235.201C533.656 234.921 533.356 234.553 533.134 234.273C532.689 233.722 532.099 232.978 531.655 232.427C531.21 231.876 530.621 231.132 530.176 230.581C529.954 230.31 529.654 229.933 529.432 229.663C528.987 229.112 528.397 228.367 527.953 227.816C527.508 227.265 526.918 226.521 526.474 225.97C526.252 225.69 525.952 225.323 525.73 225.052C525.285 224.491 524.695 223.757 524.251 223.206C519.891 217.754 512.236 216.817 503.46 221.708C489.657 229.402 478.309 248.608 478.116 264.604C477.99 275.034 482.63 281.529 489.705 282.651C497.505 283.888 505.306 285.125 513.106 286.362C507.79 285.521 504.3 280.64 504.397 272.801C504.542 260.786 513.067 246.355 523.439 240.585C530.031 236.912 535.782 237.618 539.059 241.716C538.624 241.117 538.025 240.372 537.58 239.821Z" fill="url(#paint16_linear_6_9646)"/>
<path d="M504.394 272.772C504.249 284.787 512.533 289.852 522.905 284.072C533.276 278.291 541.801 263.87 541.946 251.846C542.091 239.831 533.807 234.766 523.436 240.546C513.074 246.327 504.549 260.748 504.394 272.772Z" fill="#DDDDE2"/>
<path d="M555.405 158.204C548.117 159.693 529.056 163.153 521.101 167.696C519.912 168.363 518.723 169.03 517.534 169.774C504.968 177.362 493.079 187.917 482.592 200.328C468.47 216.982 456.871 236.971 449.361 257.501C443.707 272.734 440.372 288.277 439.995 303.066C439.927 303.733 439.927 304.4 439.927 305.067C439.782 315.109 441.039 323.944 443.494 331.609C443.049 331.387 449.699 337.602 449.255 337.302C449.255 337.302 449.1 343.884 449.023 343.884C447.012 339.786 406.029 259.946 404.318 256.679C401.863 251.847 400.52 245.68 400.597 238.392C400.897 211.782 419.774 179.885 442.75 167.106C448.694 163.762 454.349 162.051 459.471 161.829C463.038 161.674 549.383 157.614 553.993 157.469C554.438 157.605 554.96 157.904 555.405 158.204Z" fill="url(#paint17_linear_6_9646)"/>
<path d="M521.08 167.647C565.292 143.008 600.62 164.582 599.992 215.821C599.364 267.06 563.02 328.573 518.809 353.211C474.597 377.849 439.269 356.275 439.897 305.036C440.525 253.798 476.878 192.285 521.08 167.647ZM444.971 302.214C444.382 350.205 477.478 370.406 518.886 347.334C560.294 324.262 594.337 266.644 594.927 218.653C595.517 170.662 562.421 150.451 521.022 173.533C479.604 196.605 445.561 254.214 444.971 302.214Z" fill="#DDDDE2"/>
<defs>
<radialGradient id="paint0_radial_6_9646" cx="0" cy="0" r="1" gradientUnits="userSpaceOnUse" gradientTransform="translate(194.5 556) rotate(90) scale(84 169.5)">
<stop stop-color="#CECECE"/>
<stop offset="1" stop-color="#D9D9D9" stop-opacity="0"/>
</radialGradient>
<linearGradient id="paint1_linear_6_9646" x1="320.62" y1="327.041" x2="346.814" y2="207.382" gradientUnits="userSpaceOnUse">
<stop offset="0.2633" stop-color="#CACCDE"/>
<stop offset="0.6024" stop-color="#CDCFE0"/>
<stop offset="0.8687" stop-color="#D7D7E8"/>
<stop offset="1" stop-color="#DFDEEE"/>
</linearGradient>
<linearGradient id="paint2_linear_6_9646" x1="323.994" y1="327.778" x2="350.188" y2="208.119" gradientUnits="userSpaceOnUse">
<stop offset="0.2633" stop-color="#CACCDE"/>
<stop offset="0.6024" stop-color="#CDCFE0"/>
<stop offset="0.8687" stop-color="#D7D7E8"/>
<stop offset="1" stop-color="#DFDEEE"/>
</linearGradient>
<linearGradient id="paint3_linear_6_9646" x1="390.27" y1="334.945" x2="353.36" y2="258.148" gradientUnits="userSpaceOnUse">
<stop offset="0.2633" stop-color="#CACCDE"/>
<stop offset="0.8514" stop-color="#EAE9F2"/>
</linearGradient>
<linearGradient id="paint4_linear_6_9646" x1="41.8442" y1="363.461" x2="292.684" y2="363.461" gradientUnits="userSpaceOnUse">
<stop offset="0.371" stop-color="#CACCDE"/>
<stop offset="0.9694" stop-color="#EAE9F2"/>
</linearGradient>
<linearGradient id="paint5_linear_6_9646" x1="122.107" y1="348.048" x2="217.338" y2="183.105" gradientUnits="userSpaceOnUse">
<stop stop-color="#CACCDE"/>
<stop offset="0.5597" stop-color="#EAE9F2"/>
</linearGradient>
<linearGradient id="paint6_linear_6_9646" x1="147.959" y1="236.643" x2="341.884" y2="236.643" gradientUnits="userSpaceOnUse">
<stop offset="0.2355" stop-color="#A8A4B5"/>
<stop offset="1" stop-color="#DBD3E2"/>
</linearGradient>
<linearGradient id="paint7_linear_6_9646" x1="49.428" y1="400.237" x2="250.11" y2="-53.4221" gradientUnits="userSpaceOnUse">
<stop offset="0.371" stop-color="#CACCDE"/>
<stop offset="0.9694" stop-color="#EAE9F2"/>
</linearGradient>
<linearGradient id="paint8_linear_6_9646" x1="117.891" y1="185.269" x2="221.61" y2="5.62248" gradientUnits="userSpaceOnUse">
<stop stop-color="#CACCDE"/>
<stop offset="0.5597" stop-color="#EAE9F2"/>
</linearGradient>
<linearGradient id="paint9_linear_6_9646" x1="68.0914" y1="538.968" x2="16.3725" y2="247.709" gradientUnits="userSpaceOnUse">
<stop stop-color="#CACCDE"/>
<stop offset="1" stop-color="#DFDEEE"/>
</linearGradient>
<linearGradient id="paint10_linear_6_9646" x1="53.7591" y1="517.681" x2="35.249" y2="238.943" gradientUnits="userSpaceOnUse">
<stop stop-color="#CACCDE"/>
<stop offset="1" stop-color="#DFDEEE"/>
</linearGradient>
<linearGradient id="paint11_linear_6_9646" x1="112.919" y1="470.177" x2="3.91668" y2="281.381" gradientUnits="userSpaceOnUse">
<stop offset="0.6799" stop-color="#D2D3E5"/>
<stop offset="0.8132" stop-color="#EAE9F2"/>
</linearGradient>
<linearGradient id="paint12_linear_6_9646" x1="559.846" y1="329.535" x2="480.051" y2="191.326" gradientUnits="userSpaceOnUse">
<stop stop-color="white"/>
<stop offset="0.2158" stop-color="#F6F6F8"/>
<stop offset="0.5741" stop-color="#DCDDE4"/>
<stop offset="1" stop-color="#B6B8C6"/>
</linearGradient>
<linearGradient id="paint13_linear_6_9646" x1="367.795" y1="239.757" x2="426.228" y2="138.547" gradientUnits="userSpaceOnUse">
<stop offset="0.3558" stop-color="#D1D2D9"/>
<stop offset="0.3662" stop-color="#DADBE3"/>
<stop offset="0.3868" stop-color="#E6E7EE"/>
<stop offset="0.4157" stop-color="#ECEDF5"/>
<stop offset="0.496" stop-color="#EEEFF7"/>
<stop offset="0.6021" stop-color="#ECEDF5"/>
<stop offset="0.6403" stop-color="#E6E7EE"/>
<stop offset="0.6674" stop-color="#DADBE3"/>
<stop offset="0.6812" stop-color="#D1D2D9"/>
</linearGradient>
<linearGradient id="paint14_linear_6_9646" x1="345.181" y1="218.771" x2="396.766" y2="129.421" gradientUnits="userSpaceOnUse">
<stop offset="0.286458" stop-color="#7D1CF2"/>
<stop offset="0.375" stop-color="#862AF4"/>
<stop offset="0.442708" stop-color="#8D36F6"/>
<stop offset="0.557292" stop-color="#9B4BFA"/>
<stop offset="0.625" stop-color="#A257FB"/>
<stop offset="0.75" stop-color="#B06DFF"/>
</linearGradient>
<linearGradient id="paint15_linear_6_9646" x1="460.581" y1="267.813" x2="496.814" y2="205.054" gradientUnits="userSpaceOnUse">
<stop offset="0.2606" stop-color="#B9BCCC"/>
<stop offset="0.6442" stop-color="#C0C3D1"/>
</linearGradient>
<linearGradient id="paint16_linear_6_9646" x1="488.196" y1="282.716" x2="523.428" y2="221.693" gradientUnits="userSpaceOnUse">
<stop offset="0.2606" stop-color="#C0C3D1"/>
<stop offset="0.6442" stop-color="#CED0D8"/>
</linearGradient>
<linearGradient id="paint17_linear_6_9646" x1="403.896" y1="317.827" x2="510.903" y2="132.484" gradientUnits="userSpaceOnUse">
<stop offset="0.2765" stop-color="#C0C3D4"/>
<stop offset="0.496" stop-color="#DADCE6"/>
<stop offset="0.631" stop-color="#E4E6ED"/>
</linearGradient>
</defs>
</svg>
