<svg width="250" height="375" viewBox="0 0 250 375" fill="none" xmlns="http://www.w3.org/2000/svg">
<path d="M17.6135 288.047C16.6146 290.404 16.3489 292.924 17.0279 295.035C18.2531 298.887 22.2634 300.142 26.254 297.923L56.0678 281.39C70.5146 273.379 84.7941 264.606 98.8522 255.109L111.345 246.67C114.254 244.707 116.581 241.75 117.964 238.497C118.879 236.342 118.598 232.602 119.332 231.859C119.218 224.779 113.653 220.995 107.163 223.583L104.85 224.503C94.9403 228.44 85.1434 233.665 75.6713 240.062C71.6709 242.763 67.7345 245.671 63.8866 248.771L21.4515 282.92C19.7539 284.298 18.4401 286.104 17.6135 288.047Z" fill="url(#paint0_linear_6_9649)"/>
<path d="M51.559 236.475C55.6381 233.193 59.8059 230.113 64.0425 227.249C74.0706 220.473 84.4431 214.942 94.9387 210.77L97.2514 209.85C102.403 207.803 107.186 208.201 110.758 210.479L118.449 215.385C114.877 213.107 110.099 212.708 104.942 214.755L102.63 215.676C92.134 219.843 81.7566 225.379 71.7334 232.155C67.4967 235.013 63.329 238.094 59.2498 241.381L16.8148 275.529L9.12399 270.624L51.559 236.475Z" fill="url(#paint1_linear_6_9649)"/>
<path d="M1.82741 280.357C3.39216 276.672 5.90166 273.223 9.12463 270.625L16.8154 275.53C13.5925 278.128 11.083 281.578 9.51821 285.263C7.62379 289.721 7.11698 294.524 8.40617 298.544C9.26235 301.226 10.8222 303.248 12.8199 304.522L5.12907 299.617C3.12639 298.342 1.57152 296.32 0.710418 293.638C-0.573852 289.618 -0.0670078 284.82 1.82741 280.357Z" fill="url(#paint2_linear_6_9649)"/>
<path d="M9.51788 285.263C11.0826 281.577 13.5921 278.128 16.8151 275.53L59.2502 241.381C63.3293 238.099 67.4971 235.019 71.7337 232.155C81.7618 225.379 92.1343 219.848 102.63 215.676L104.943 214.756C115.537 210.549 124.551 216.675 124.753 228.228C124.817 231.81 124.01 235.525 122.519 239.034C120.275 244.318 116.476 249.136 111.748 252.334L99.2544 260.773C84.9601 270.427 70.4396 279.348 55.7516 287.492L25.9379 304.025C18.3257 308.247 10.753 305.875 8.40096 298.538C7.12161 294.523 7.62838 289.725 9.51788 285.263ZM17.0267 295.035C18.2519 298.888 22.2622 300.142 26.2528 297.923L56.0665 281.39C70.5133 273.379 84.7929 264.606 98.851 255.109L111.344 246.67C114.252 244.707 116.58 241.75 117.962 238.497C118.878 236.342 118.597 232.603 119.33 231.86C119.217 224.779 113.652 220.995 107.162 223.583L104.849 224.503C94.9391 228.44 85.1422 233.665 75.6701 240.062C71.6696 242.764 67.7332 245.672 63.8853 248.772L21.4503 282.92C19.7527 284.288 18.4389 286.099 17.6122 288.038C16.6134 290.405 16.3476 292.924 17.0267 295.035Z" fill="url(#paint3_linear_6_9649)"/>
<path d="M92.4526 246.483C92.4526 254.528 99.2676 345.082 159.569 345.082C219.871 345.082 227.473 249.78 227.473 246.508C224.713 246.508 92.4526 246.483 92.4526 246.483Z" fill="url(#paint4_linear_6_9649)"/>
<path d="M141.064 230.453C151.761 236.456 168.86 236.284 179.257 230.069C189.655 223.854 189.413 213.949 178.716 207.946C168.019 201.943 150.92 202.115 140.523 208.33C130.125 214.55 130.367 224.45 141.064 230.453Z" fill="#C0BACA"/>
<path d="M93.0928 241.139C93.4962 239.57 94.0769 237.483 94.6231 235.953C95.2037 234.329 96.0993 232.209 96.8324 230.654C98.1265 227.908 100.262 224.405 102.147 221.925C103.219 220.517 105.724 217.225 109.833 213.574C113.941 209.918 117.381 207.812 119.433 206.553C120.746 205.746 122.567 204.786 123.94 204.083C125.017 203.531 126.489 202.867 127.596 202.38C130.647 201.042 133.171 200.24 135.611 199.457C135.941 199.354 138.987 198.394 143.514 197.504C146.491 196.918 149.606 196.52 151.367 196.352C152.538 196.244 154.098 196.092 155.269 196.052C156.44 196.013 158.005 195.939 159.176 195.924C160.352 195.914 161.917 195.959 163.093 195.973C165.548 196.003 168.55 196.333 170.961 196.598C170.995 196.603 174.838 197.056 178.917 197.986C180.212 198.281 181.929 198.719 183.208 199.078C184.365 199.403 185.885 199.905 187.027 200.269C188.449 200.722 190.294 201.46 191.672 202.026C192.798 202.488 194.26 203.187 195.367 203.694C196.848 204.368 198.767 205.411 200.155 206.257C202.192 207.497 204.864 209.244 206.758 210.696C208.628 212.133 211.014 214.199 212.668 215.882C214.055 217.294 215.861 219.228 217.042 220.817C217.716 221.728 218.656 222.919 219.276 223.873C220.221 225.32 221.397 227.308 222.248 228.813C223.05 230.226 223.955 232.199 224.531 233.719C225.323 235.796 226.199 238.63 226.804 240.765C229.629 252.329 223.518 264.512 208.372 273.566C182.386 289.1 139.646 289.533 112.908 274.53C96.8915 265.541 90.2536 253.047 93.0928 241.139ZM141.063 230.452C151.761 236.455 168.86 236.283 179.257 230.068C189.654 223.853 189.413 213.948 178.716 207.95C168.018 201.947 150.919 202.119 140.522 208.334C130.125 214.549 130.366 224.449 141.063 230.452Z" fill="url(#paint5_linear_6_9649)"/>
<path d="M144.62 342.976C149.191 344.334 154.161 345.077 159.574 345.077C204.386 345.077 219.541 291.447 224.26 264.01C215.501 257.377 205.503 251.325 200.356 248.328C198.191 247.074 196.882 246.345 196.882 246.345C196.208 246.897 195.592 247.556 195.036 248.328C185.609 261.215 191.627 302.853 185.171 322.216C179.615 338.892 163.195 344.127 144.62 342.976Z" fill="#EBEBEB"/>
<path d="M125.466 241.69C144.543 252.702 175.567 252.648 194.767 241.567C213.962 230.486 214.061 212.57 194.983 201.558C175.906 190.545 144.882 190.6 125.682 201.681C106.482 212.762 106.389 230.678 125.466 241.69Z" fill="#D4D5E6"/>
<path d="M203.486 226.653C201.955 227.583 199.874 228.749 198.255 229.512C194.23 231.411 194.23 231.411 190.048 232.986C188.793 233.458 187.09 234.019 185.796 234.373C183.444 235.018 180.28 235.785 177.899 236.307C176.634 236.583 174.937 236.873 173.652 237.03C172.422 237.183 170.779 237.409 169.544 237.532C168.304 237.655 166.65 237.783 165.41 237.847C164.17 237.916 162.512 237.97 161.267 237.98C160.022 237.99 158.359 237.946 157.109 237.931C155.83 237.916 154.118 237.813 152.843 237.69C150.373 237.449 147.086 237.03 144.636 236.656C143.302 236.455 141.541 236.095 140.232 235.78C139.031 235.49 137.432 235.116 136.246 234.782C134.819 234.378 132.939 233.778 131.532 233.325C129.869 232.789 127.699 231.923 126.09 231.234C123.935 230.309 121.125 228.921 119.068 227.789C117.312 226.825 115.063 225.369 113.39 224.261C112.234 223.499 110.753 222.392 109.685 221.511C108.13 220.227 106.137 218.426 104.666 217.048C107.599 219.951 111.264 222.677 115.658 225.123C141.285 239.412 181.988 238.999 206.576 224.202C210.099 222.082 213.105 219.779 215.585 217.348C214.38 218.485 212.727 219.951 211.472 221.034C210.881 221.545 210.045 222.17 209.425 222.643C207.717 223.961 205.321 225.536 203.486 226.653Z" fill="url(#paint6_linear_6_9649)"/>
<path d="M152.843 237.69C118.92 237.69 83.6151 203.999 83.6151 181.02C83.6151 172.758 84.1515 159.453 88.2208 145.798C95.4688 121.466 230.543 133.512 233.25 150.827C233.904 155.024 234.047 158.036 234.219 159.039C235.105 164.186 240.606 193.223 219.694 213.323C198.776 233.429 178.558 237.69 152.843 237.69Z" fill="url(#paint7_linear_6_9649)"/>
<path d="M87.2355 149.385C87.6734 147.673 88.3082 145.405 88.8986 143.742C89.5285 141.975 90.5027 139.667 91.3048 137.97C92.7121 134.983 95.0395 131.16 97.0914 128.463C98.2575 126.933 100.988 123.346 105.461 119.365C109.939 115.384 113.684 113.091 115.917 111.719C117.349 110.843 119.332 109.795 120.828 109.027C122.004 108.427 123.603 107.703 124.814 107.172C128.135 105.715 130.886 104.84 133.543 103.988C133.907 103.875 137.219 102.832 142.149 101.863C145.392 101.223 148.782 100.79 150.701 100.608C151.975 100.49 153.673 100.322 154.952 100.283C156.227 100.244 157.929 100.16 159.209 100.145C160.488 100.131 162.195 100.18 163.47 100.195C166.147 100.229 169.414 100.588 172.037 100.874C172.076 100.878 176.263 101.371 180.702 102.384C182.114 102.704 183.984 103.181 185.376 103.57C186.636 103.924 188.289 104.47 189.534 104.869C191.079 105.361 193.092 106.168 194.597 106.783C195.823 107.285 197.417 108.048 198.622 108.599C200.236 109.337 202.323 110.469 203.838 111.389C206.057 112.742 208.97 114.641 211.027 116.226C213.064 117.79 215.662 120.044 217.463 121.875C218.974 123.41 220.942 125.521 222.226 127.253C222.965 128.247 223.983 129.541 224.657 130.579C225.686 132.159 226.965 134.319 227.895 135.957C228.771 137.492 229.755 139.648 230.385 141.301C231.246 143.56 232.2 146.645 232.86 148.972C235.94 161.564 229.278 174.835 212.784 184.696C184.481 201.617 137.927 202.085 108.812 185.749C91.3737 175.961 84.1405 162.361 87.2355 149.385Z" fill="url(#paint8_linear_6_9649)"/>
<path d="M86.5918 174.135C86.4393 178.79 86.6312 181.428 87.3644 184.291C90.0116 193.089 97.0432 201.164 109.015 207.836C129.332 219.168 157.783 222.569 182.922 218.165C190.765 216.398 193.698 215.739 197.531 182.225C198.043 172.802 194.81 172.118 191.936 172.58C167.54 180.065 136.57 178.027 115.535 166.302C101.816 158.655 95.0503 148.401 95.321 138.2C95.3062 137.994 95.2914 137.718 95.2767 137.511C94.8092 137.762 94.4992 137.935 94.1843 138.392C94.1892 138.382 87.7433 150.659 86.5918 174.135Z" fill="#003447"/>
<path d="M127.103 208.013C128.569 208.013 129.573 207.851 129.696 207.831L129.169 204.667C129.095 204.677 121.434 205.868 117.754 200.736L115.151 202.601C118.477 207.251 123.894 208.013 127.103 208.013Z" fill="#00BBFF"/>
<path d="M149.08 206.281H150.04C152.17 206.281 154.198 205.42 155.758 203.856C157.475 202.133 158.454 199.698 158.444 197.178L158.439 194.408C158.425 189.561 154.882 185.566 150.37 185.315L149.444 185.266C147.284 185.133 145.203 185.91 143.564 187.411C141.793 189.04 140.73 191.406 140.656 193.906L140.563 196.799C140.484 199.397 141.439 201.927 143.19 203.728C144.785 205.376 146.876 206.281 149.08 206.281ZM149.016 189.743C149.075 189.743 149.139 189.743 149.198 189.748L150.124 189.797C152.23 189.916 153.947 191.987 153.952 194.418L153.962 197.188C153.966 198.527 153.465 199.801 152.584 200.687C152.082 201.194 151.236 201.789 150.045 201.789H149.085C148.106 201.789 147.161 201.371 146.423 200.603C145.513 199.668 145.016 198.33 145.06 196.937L145.154 194.044C145.193 192.74 145.725 191.529 146.61 190.713C147.289 190.088 148.141 189.743 149.016 189.743Z" fill="#00BBFF"/>
<path d="M106.215 190.974C106.987 190.974 107.76 190.792 108.493 190.432C110.554 189.419 112.05 187.131 112.601 184.159L113.113 181.393C113.959 176.807 112.287 171.961 109.216 170.11L108.581 169.732C107.066 168.821 105.363 168.693 103.784 169.377C101.717 170.278 100.177 172.453 99.5669 175.346L98.9616 178.2C97.9283 183.096 99.7636 188.292 103.144 190.034L103.808 190.378C104.591 190.777 105.403 190.974 106.215 190.974ZM105.836 173.432C105.949 173.432 106.091 173.466 106.274 173.579L106.908 173.958C108.188 174.731 109.236 177.727 108.704 180.581L108.193 183.347C107.878 185.049 107.125 186.112 106.515 186.412C106.323 186.511 106.146 186.54 105.865 186.393L105.201 186.053C103.818 185.344 102.716 182.166 103.351 179.135L103.956 176.281C104.291 174.696 105.009 173.742 105.575 173.496C105.649 173.461 105.732 173.432 105.836 173.432Z" fill="#00BBFF"/>
<path d="M217.716 248.083C213.258 250.657 209.951 256.817 210 263.234L210.025 265.984C210.118 277.799 211.309 289.288 213.563 300.207C214.517 304.827 215.659 309.335 216.987 313.709L231.621 361.921C232.906 366.172 236.63 367.855 240.183 365.793C243.746 363.746 246.053 358.58 245.492 353.91L241.349 319.028C239.347 302.126 236.66 285.534 233.309 269.311L230.332 254.903C229.181 249.328 225.249 246.095 220.678 246.961C220.358 247.675 218.651 247.542 217.716 248.083Z" fill="url(#paint9_linear_6_9649)"/>
<path d="M214.02 239.62C215.556 238.734 217.17 238.109 218.838 237.795C226.278 236.387 232.674 241.642 234.549 250.726L237.526 265.133C240.936 281.627 243.667 298.5 245.704 315.682L249.842 350.564C250.9 359.475 246.54 369.223 239.755 373.145C232.969 377.066 225.938 373.888 223.478 365.788L208.844 317.577C207.437 312.941 206.226 308.169 205.217 303.277C202.826 291.714 201.566 279.541 201.468 267.037L201.443 264.282C201.37 253.855 206.753 243.817 214.02 239.62ZM213.558 300.207C214.512 304.827 215.654 309.335 216.983 313.709L231.616 361.921C232.901 366.172 236.626 367.855 240.178 365.793C243.741 363.746 246.048 358.58 245.487 353.91L241.344 319.028C239.342 302.126 236.655 285.534 233.304 269.311L230.327 254.903C229.176 249.328 225.244 246.096 220.673 246.962C220.353 247.67 218.646 247.542 217.711 248.083C213.253 250.657 209.946 256.817 209.995 263.234L210.02 265.984C210.113 277.799 211.304 289.288 213.558 300.207Z" fill="url(#paint10_linear_6_9649)"/>
<path d="M205.051 237.184C206.586 236.298 208.2 235.673 209.868 235.358C211.772 234.999 213.603 235.073 215.31 235.535L224.28 237.971C222.573 237.509 220.737 237.435 218.838 237.794C217.17 238.109 215.556 238.734 214.021 239.62C206.748 243.817 201.37 253.855 201.449 264.281L201.473 267.037C201.572 279.54 202.831 291.709 205.223 303.277C206.232 308.168 207.442 312.941 208.849 317.576L223.483 365.788C224.91 370.482 227.867 373.518 231.42 374.488L222.445 372.052C218.887 371.087 215.93 368.047 214.508 363.352L199.874 315.141C198.467 310.505 197.256 305.732 196.248 300.841C193.856 289.278 192.597 277.104 192.498 264.601L192.474 261.846C192.395 251.419 197.778 241.381 205.051 237.184Z" fill="url(#paint11_linear_6_9649)"/>
<path d="M33.5104 75.2893C33.8373 75.5788 34.161 75.8683 34.4879 76.1578C36.0102 77.512 37.6134 78.6887 39.2695 79.6445L37.8251 78.4366C36.334 77.5712 34.8864 76.5096 33.5104 75.2893Z" fill="#44CAFA"/>
<path d="M21.6633 54.0863C21.7536 54.5128 21.8438 54.9393 21.9341 55.3658C21.5418 53.5011 21.3333 51.655 21.3364 49.8744L21.0002 48.0034C20.9971 49.974 21.2275 52.0193 21.6633 54.0863Z" fill="#44CAFA"/>
<path d="M37.8253 78.4333L39.2697 79.6412L60.5879 91.9502L59.9684 91.2186L37.8253 78.4333Z" fill="#44CAFA"/>
<path d="M21.4258 18.5347L21.0896 16.6606L21.0024 47.9997L21.3355 49.8738L21.4258 18.5347Z" fill="#44CAFA"/>
<path d="M77.1151 123.971L83.4346 120.301L82.5878 97.1987L76.2683 100.869L77.1151 123.971Z" fill="#21B7ED"/>
<path d="M73.6597 117.739L77.1152 123.971L76.2685 100.869L72.9655 98.8145L73.6597 117.739Z" fill="#44CAFA"/>
<path d="M32.7549 1.23618L26.4353 4.90958C29.7694 2.97326 34.383 3.24721 39.4759 6.18593L45.7954 2.51564C40.7025 -0.426187 36.0889 -0.700132 32.7549 1.23618Z" fill="#21B7ED"/>
<path d="M38.0203 9.0778L39.4741 6.18577C29.3536 0.342581 21.1196 5.03083 21.0854 16.6612L21.4216 18.5321C21.4527 8.03803 28.8866 3.80429 38.0203 9.0778Z" fill="#44CAFA"/>
<path d="M72.9652 98.8141L76.2681 100.869C85.4236 104.972 92.5618 100.162 92.5898 89.3318L89.3554 89.145C89.3305 98.92 82.8865 103.263 72.9652 98.8141Z" fill="#44CAFA"/>
<path d="M87.2456 101.087L93.5651 97.4167C96.8556 95.5053 98.8946 91.4397 98.9102 85.6619L92.5907 89.3353C92.5751 95.11 90.5361 99.1756 87.2456 101.087Z" fill="#21B7ED"/>
<path d="M92.5899 89.3323L98.9094 85.662L98.9966 54.323L92.6802 57.9964L92.5899 89.3323Z" fill="#21B7ED"/>
<path d="M89.359 89.1452L92.5904 89.332L92.6807 57.9961L89.4462 57.8062L89.359 89.1452Z" fill="#44CAFA"/>
<path d="M74.412 26.355L80.7314 22.6848L45.7968 2.51221L39.4773 6.1856L74.412 26.355Z" fill="#21B7ED"/>
<path d="M72.9593 29.247L74.4131 26.355L39.4785 6.18555L38.0215 9.07757L72.9593 29.247Z" fill="#44CAFA"/>
<path d="M98.3364 48.2366C98.2866 48.0031 98.2368 47.7665 98.187 47.5331C98.1466 47.3401 98.1061 47.1502 98.0656 46.9571C96.5184 39.629 92.0979 32.0176 86.4913 27.0368C86.1644 26.7472 85.8407 26.4577 85.5138 26.1682C91.7275 31.6876 96.618 40.1147 98.3364 48.2366Z" fill="#44CAFA"/>
<path d="M38.0212 9.07829C28.8875 3.80478 21.4505 8.03853 21.4225 18.5357L21.3322 49.8748C21.3011 60.372 28.6883 73.1635 37.822 78.4339L59.9651 91.2192L73.6563 117.742L72.9621 98.8181C82.8834 103.267 89.3274 98.9209 89.3554 89.149L89.4457 57.8099C89.4768 47.3159 82.0926 34.5243 72.9558 29.2508L38.0212 9.07829Z" fill="#73D8FF"/>
<path d="M89.4461 57.8064L92.6806 57.9931C92.7148 46.3628 84.5368 32.1984 74.4132 26.3552L72.9594 29.2472C82.0931 34.5208 89.4772 47.3123 89.4461 57.8064Z" fill="#44CAFA"/>
<path d="M92.6799 57.9961L98.9994 54.3227C99.0336 42.6924 90.8556 28.528 80.732 22.6848L74.4125 26.3582C84.533 32.1983 92.7111 46.3627 92.6799 57.9961Z" fill="#21B7ED"/>
<path d="M37.754 52.3522L40.4126 50.8081L36.7267 52.4331L34.0682 53.9772L37.754 52.3522Z" fill="#21B7ED"/>
<path d="M54.5951 79.7342L57.2536 78.1902L58.3276 73.2871L55.6691 74.8343L54.5951 79.7342Z" fill="#21B7ED"/>
<path d="M56.9323 65.7041L59.5908 64.16C58.2522 64.9383 56.3999 64.8293 54.3578 63.6495C54.336 63.637 54.3174 63.6246 54.2956 63.6152L51.637 65.1593C51.6588 65.1718 51.6775 65.1842 51.6993 65.1935C53.7414 66.3734 55.5937 66.4823 56.9323 65.7041Z" fill="#21B7ED"/>
<mask id="mask0_6_9649" style="mask-type:luminance" maskUnits="userSpaceOnUse" x="51" y="63" width="9" height="4">
<path d="M56.9323 65.7041L59.5908 64.16C58.2522 64.9383 56.3999 64.8293 54.3578 63.6495C54.336 63.637 54.3174 63.6246 54.2956 63.6152L51.637 65.1593C51.6588 65.1718 51.6775 65.1842 51.6993 65.1935C53.7414 66.3734 55.5937 66.4823 56.9323 65.7041Z" fill="white"/>
</mask>
<g mask="url(#mask0_6_9649)">
<path d="M56.9323 65.7041L59.5908 64.16C58.2522 64.9383 56.3999 64.8293 54.3578 63.6495C54.336 63.637 54.3174 63.6246 54.2956 63.6152L51.637 65.1593C51.6588 65.1718 51.6775 65.1842 51.6993 65.1935C53.7414 66.3734 55.5937 66.4823 56.9323 65.7041Z" fill="#21B7ED"/>
</g>
<path d="M49.1635 46.2161L46.5049 47.7601C45.1974 48.5197 44.3787 50.1292 44.3569 52.4173C44.3133 57.0713 47.5727 62.7744 51.6383 65.159L54.2969 63.6149C50.2281 61.2303 46.9687 55.5272 47.0154 50.8732C47.0372 48.5851 47.856 46.9756 49.1635 46.2161Z" fill="#21B7ED"/>
<mask id="mask1_6_9649" style="mask-type:luminance" maskUnits="userSpaceOnUse" x="44" y="46" width="11" height="20">
<path d="M49.1635 46.2161L46.5049 47.7601C45.1974 48.5197 44.3787 50.1292 44.3569 52.4173C44.3133 57.0713 47.5727 62.7744 51.6383 65.159L54.2969 63.6149C50.2281 61.2303 46.9687 55.5272 47.0154 50.8732C47.0372 48.5851 47.856 46.9756 49.1635 46.2161Z" fill="white"/>
</mask>
<g mask="url(#mask1_6_9649)">
<path d="M51.6383 65.159L54.2969 63.6149C50.2281 61.2303 46.9687 55.5272 47.0154 50.8732C47.0372 48.5851 47.856 46.9756 49.1635 46.2161L46.5049 47.7601C45.1974 48.5197 44.3787 50.1292 44.3569 52.4173C44.3133 57.0713 47.5727 62.7744 51.6383 65.159Z" fill="#21B7ED"/>
</g>
<path d="M42.0114 39.0623L44.6699 37.5182L40.0097 33.0386L37.3512 34.5858L42.0114 39.0623Z" fill="#21B7ED"/>
<path d="M47.7648 38.633L50.4233 37.0889C48.2504 36.5597 46.2861 36.7278 44.6673 37.5185L42.0088 39.0626C43.6275 38.2718 45.5919 38.1006 47.7648 38.633Z" fill="#21B7ED"/>
<mask id="mask2_6_9649" style="mask-type:luminance" maskUnits="userSpaceOnUse" x="42" y="36" width="9" height="4">
<path d="M47.7648 38.633L50.4233 37.0889C48.2504 36.5597 46.2861 36.7278 44.6673 37.5185L42.0088 39.0626C43.6275 38.2718 45.5919 38.1006 47.7648 38.633Z" fill="white"/>
</mask>
<g mask="url(#mask2_6_9649)">
<path d="M47.7648 38.633L50.4233 37.0889C48.2504 36.5597 46.2861 36.7278 44.6673 37.5185L42.0088 39.0626C43.6275 38.2718 45.5919 38.1006 47.7648 38.633Z" fill="#21B7ED"/>
</g>
<path d="M66.0822 78.8816L68.7408 77.3375C70.0607 76.2915 71.1285 74.844 71.8818 73.0415L69.2233 74.5856C68.4699 76.388 67.4021 77.8356 66.0822 78.8816Z" fill="#21B7ED"/>
<mask id="mask3_6_9649" style="mask-type:luminance" maskUnits="userSpaceOnUse" x="66" y="73" width="6" height="6">
<path d="M66.0822 78.8816L68.7408 77.3375C70.0607 76.2915 71.1285 74.844 71.8818 73.0415L69.2233 74.5856C68.4699 76.388 67.4021 77.8356 66.0822 78.8816Z" fill="white"/>
</mask>
<g mask="url(#mask3_6_9649)">
<path d="M66.0822 78.8816L68.7408 77.3375C70.0607 76.2915 71.1285 74.844 71.8818 73.0415L69.2233 74.5856C68.4699 76.388 67.4021 77.8356 66.0822 78.8816Z" fill="#21B7ED"/>
</g>
<path d="M69.2267 74.5858L71.8853 73.0417L68.2679 67.1362L65.6093 68.6803L69.2267 74.5858Z" fill="#21B7ED"/>
<path d="M65.6083 68.6798L68.2668 67.1357C68.5314 66.068 68.6747 64.8788 68.6871 63.5806C68.6996 62.2794 68.5781 60.9346 68.3415 59.571L65.683 61.1151C65.9196 62.4755 66.0441 63.8203 66.0286 65.1247C66.0161 66.4229 65.8698 67.612 65.6083 68.6798Z" fill="#21B7ED"/>
<mask id="mask4_6_9649" style="mask-type:luminance" maskUnits="userSpaceOnUse" x="65" y="59" width="4" height="10">
<path d="M65.6083 68.6798L68.2668 67.1357C68.5314 66.068 68.6747 64.8788 68.6871 63.5806C68.6996 62.2794 68.5781 60.9346 68.3415 59.571L65.683 61.1151C65.9196 62.4755 66.0441 63.8203 66.0286 65.1247C66.0161 66.4229 65.8698 67.612 65.6083 68.6798Z" fill="white"/>
</mask>
<g mask="url(#mask4_6_9649)">
<path d="M65.6083 68.6798L68.2668 67.1357C68.5314 66.068 68.6747 64.8788 68.6871 63.5806C68.6996 62.2794 68.5781 60.9346 68.3415 59.571L65.683 61.1151C65.9196 62.4755 66.0441 63.8203 66.0286 65.1247C66.0161 66.4229 65.8698 67.612 65.6083 68.6798Z" fill="#21B7ED"/>
</g>
<path d="M61.6549 50.5773L64.3135 49.0332C62.7289 46.3622 60.7895 43.906 58.629 41.895L55.9705 43.4391C58.1309 45.4532 60.0673 47.9094 61.6549 50.5773Z" fill="#21B7ED"/>
<mask id="mask5_6_9649" style="mask-type:luminance" maskUnits="userSpaceOnUse" x="55" y="41" width="10" height="10">
<path d="M61.6549 50.5773L64.3135 49.0332C62.7289 46.3622 60.7895 43.906 58.629 41.895L55.9705 43.4391C58.1309 45.4532 60.0673 47.9094 61.6549 50.5773Z" fill="white"/>
</mask>
<g mask="url(#mask5_6_9649)">
<path d="M61.6549 50.5773L64.3135 49.0332C62.7289 46.3622 60.7895 43.906 58.629 41.895L55.9705 43.4391C58.1309 45.4532 60.0673 47.9094 61.6549 50.5773Z" fill="#21B7ED"/>
</g>
<path d="M55.0016 37.3442L57.6602 35.8002C56.6578 35.025 55.6305 34.3215 54.5814 33.7051C54.5378 33.6802 54.4942 33.6553 54.4506 33.6304C53.4451 33.0513 52.4614 32.5719 51.4994 32.1921L48.8409 33.7362C49.8028 34.1191 50.7897 34.5954 51.7921 35.1744C51.8357 35.1993 51.8792 35.2242 51.9228 35.2492C52.9719 35.8655 53.9992 36.566 55.0016 37.3442Z" fill="#21B7ED"/>
<mask id="mask6_6_9649" style="mask-type:luminance" maskUnits="userSpaceOnUse" x="48" y="32" width="10" height="6">
<path d="M55.0016 37.3442L57.6602 35.8002C56.6578 35.025 55.6305 34.3215 54.5814 33.7051C54.5378 33.6802 54.4942 33.6553 54.4506 33.6304C53.4451 33.0513 52.4614 32.5719 51.4994 32.1921L48.8409 33.7362C49.8028 34.1191 50.7897 34.5954 51.7921 35.1744C51.8357 35.1993 51.8792 35.2242 51.9228 35.2492C52.9719 35.8655 53.9992 36.566 55.0016 37.3442Z" fill="white"/>
</mask>
<g mask="url(#mask6_6_9649)">
<path d="M55.0016 37.3442L57.6602 35.8002C56.6578 35.025 55.6305 34.3215 54.5814 33.7051C54.5378 33.6802 54.4942 33.6553 54.4506 33.6304C53.4451 33.0513 52.4614 32.5719 51.4994 32.1921L48.8409 33.7362C49.8028 34.1191 50.7897 34.5954 51.7921 35.1744C51.8357 35.1993 51.8792 35.2242 51.9228 35.2492C52.9719 35.8655 53.9992 36.566 55.0016 37.3442Z" fill="#21B7ED"/>
</g>
<path d="M55.967 43.4425L58.6255 41.8953L57.6605 35.7969L55.0019 37.3441L55.967 43.4425Z" fill="#21B7ED"/>
<path d="M66.3429 51.5802L69.0015 50.0361L64.3132 49.0337L61.6547 50.5778L66.3429 51.5802Z" fill="#21B7ED"/>
<path d="M69.3698 59.4902L72.0283 57.9461C71.3154 55.2814 70.2881 52.6104 69.0055 50.0359L66.347 51.58C67.6296 54.1545 68.6569 56.8254 69.3698 59.4902Z" fill="#21B7ED"/>
<mask id="mask7_6_9649" style="mask-type:luminance" maskUnits="userSpaceOnUse" x="66" y="50" width="7" height="10">
<path d="M69.3698 59.4902L72.0283 57.9461C71.3154 55.2814 70.2881 52.6104 69.0055 50.0359L66.347 51.58C67.6296 54.1545 68.6569 56.8254 69.3698 59.4902Z" fill="white"/>
</mask>
<g mask="url(#mask7_6_9649)">
<path d="M69.3698 59.4902L72.0283 57.9461C71.3154 55.2814 70.2881 52.6104 69.0055 50.0359L66.347 51.58C67.6296 54.1545 68.6569 56.8254 69.3698 59.4902Z" fill="#21B7ED"/>
</g>
<path d="M37.7527 52.3524L34.0669 53.9774C34.7798 56.6421 35.8071 59.3131 37.0896 61.8876L41.781 62.8931C43.3656 65.561 45.3019 68.0172 47.4655 70.0282L48.4336 76.1236C49.436 76.9019 50.4633 77.6054 51.5124 78.2187C51.5684 78.2498 51.6245 78.2841 51.6774 78.3152C52.6705 78.888 53.6417 79.358 54.5943 79.7347L55.6683 74.8348C57.8412 75.364 59.8056 75.1959 61.4244 74.4052L66.0815 78.8849C67.4014 77.8389 68.4692 76.3913 69.2226 74.5889L65.6052 68.6834C65.8698 67.6156 66.013 66.4265 66.0254 65.1283C66.0379 63.8271 65.9165 62.4822 65.6799 61.1187L69.3657 59.4937C68.6528 56.8289 67.6256 54.1579 66.343 51.5834L61.6516 50.581C60.0671 47.91 58.1277 45.4538 55.9672 43.4428L54.999 37.3444C53.9966 36.5692 52.9693 35.8657 51.9202 35.2493C51.8767 35.2244 51.833 35.1995 51.7895 35.1746C50.7839 34.5955 49.8002 34.1161 48.8383 33.7363L47.7643 38.6363C45.5914 38.107 43.6271 38.2752 42.0083 39.0659L37.3511 34.5893C36.0312 35.6384 34.9634 37.0797 34.2101 38.8884L37.8274 44.7939C37.5628 45.8617 37.4196 47.0477 37.4072 48.349C37.3947 49.6471 37.5161 50.992 37.7527 52.3524ZM51.6369 65.1594C47.5713 62.7748 44.3119 57.0717 44.3555 52.4177C44.4022 47.7855 47.7021 45.9395 51.7397 48.2712C51.7584 48.2805 51.777 48.2929 51.7957 48.3054C55.8644 50.69 59.1238 56.3962 59.0771 61.0471C59.0304 65.6762 55.7337 67.5254 51.6961 65.1937C51.6774 65.1843 51.6587 65.1719 51.6369 65.1594Z" fill="white"/>
<defs>
<linearGradient id="paint0_linear_6_9649" x1="77.7699" y1="278.076" x2="55.2056" y2="240.567" gradientUnits="userSpaceOnUse">
<stop offset="0.2633" stop-color="#CACCDE"/>
<stop offset="0.6024" stop-color="#CDCFE0"/>
<stop offset="0.8687" stop-color="#D7D7E8"/>
<stop offset="1" stop-color="#DFDEEE"/>
</linearGradient>
<linearGradient id="paint1_linear_6_9649" x1="37.963" y1="287.739" x2="89.6201" y2="198.267" gradientUnits="userSpaceOnUse">
<stop offset="0.1486" stop-color="#EAE9F2"/>
<stop offset="0.5226" stop-color="#E7E7F0"/>
<stop offset="0.7498" stop-color="#DFDFEB"/>
<stop offset="0.9373" stop-color="#D1D2E2"/>
<stop offset="1" stop-color="#CACCDE"/>
</linearGradient>
<linearGradient id="paint2_linear_6_9649" x1="18.2857" y1="301.366" x2="2.6855" y2="274.345" gradientUnits="userSpaceOnUse">
<stop offset="0.2633" stop-color="#CACCDE"/>
<stop offset="0.8514" stop-color="#EAE9F2"/>
</linearGradient>
<linearGradient id="paint3_linear_6_9649" x1="76.9721" y1="278.555" x2="54.4078" y2="241.046" gradientUnits="userSpaceOnUse">
<stop offset="0.2633" stop-color="#CACCDE"/>
<stop offset="0.6024" stop-color="#CDCFE0"/>
<stop offset="0.8687" stop-color="#D7D7E8"/>
<stop offset="1" stop-color="#DFDEEE"/>
</linearGradient>
<linearGradient id="paint4_linear_6_9649" x1="227.475" y1="295.782" x2="92.4546" y2="295.782" gradientUnits="userSpaceOnUse">
<stop offset="0.371" stop-color="#CACCDE"/>
<stop offset="0.9694" stop-color="#EAE9F2"/>
</linearGradient>
<linearGradient id="paint5_linear_6_9649" x1="184.273" y1="287.486" x2="133.013" y2="198.702" gradientUnits="userSpaceOnUse">
<stop stop-color="#CACCDE"/>
<stop offset="0.5597" stop-color="#EAE9F2"/>
</linearGradient>
<linearGradient id="paint6_linear_6_9649" x1="170.359" y1="227.519" x2="65.9744" y2="227.519" gradientUnits="userSpaceOnUse">
<stop offset="0.2355" stop-color="#A8A4B5"/>
<stop offset="1" stop-color="#DBD3E2"/>
</linearGradient>
<linearGradient id="paint7_linear_6_9649" x1="223.395" y1="315.578" x2="115.372" y2="71.3849" gradientUnits="userSpaceOnUse">
<stop offset="0.371" stop-color="#CACCDE"/>
<stop offset="0.9694" stop-color="#EAE9F2"/>
</linearGradient>
<linearGradient id="paint8_linear_6_9649" x1="186.542" y1="199.866" x2="130.713" y2="103.167" gradientUnits="userSpaceOnUse">
<stop stop-color="#CACCDE"/>
<stop offset="0.5597" stop-color="#EAE9F2"/>
</linearGradient>
<linearGradient id="paint9_linear_6_9649" x1="213.348" y1="390.254" x2="241.187" y2="233.477" gradientUnits="userSpaceOnUse">
<stop stop-color="#CACCDE"/>
<stop offset="1" stop-color="#DFDEEE"/>
</linearGradient>
<linearGradient id="paint10_linear_6_9649" x1="221.063" y1="378.796" x2="231.026" y2="228.758" gradientUnits="userSpaceOnUse">
<stop stop-color="#CACCDE"/>
<stop offset="1" stop-color="#DFDEEE"/>
</linearGradient>
<linearGradient id="paint11_linear_6_9649" x1="189.219" y1="353.226" x2="247.892" y2="251.601" gradientUnits="userSpaceOnUse">
<stop offset="0.6799" stop-color="#D2D3E5"/>
<stop offset="0.8132" stop-color="#EAE9F2"/>
</linearGradient>
</defs>
</svg>
