<svg width="408" height="665" viewBox="0 0 408 665" fill="none" xmlns="http://www.w3.org/2000/svg">
<path d="M343.533 587.975L132.466 466.058C128.725 463.894 122.601 463.899 118.881 466.058L4.06198 532.813C0.34216 534.973 0.363889 538.524 4.10546 540.683L215.173 662.599C218.914 664.764 225.038 664.764 228.758 662.599L343.577 595.844C347.297 593.685 347.275 590.134 343.533 587.975Z" fill="#DFE4E6" fill-opacity="0.1"/>
<path d="M343.533 559.113L132.466 437.197C128.725 435.032 122.601 435.038 118.881 437.197L4.06198 503.952C0.34216 506.117 0.363889 509.663 4.10546 511.822L215.173 633.738C218.914 635.903 225.038 635.903 228.758 633.738L343.577 566.983C347.297 564.829 347.275 561.272 343.533 559.113Z" fill="#E6E6FA"/>
<path d="M2.07038e-05 519.359L0.0272389 510.005C0.0218006 511.626 1.08774 513.252 3.21957 514.486L3.19235 523.84C1.06053 522.611 -0.00541763 520.985 2.07038e-05 519.359Z" fill="#A1A1BF"/>
<path d="M0.678811 507.857C1.07581 507.226 1.46747 506.595 1.86446 505.959C0.629962 507.933 1.38042 510.244 4.11046 511.821L3.21857 514.481C0.129597 512.702 -0.71884 510.092 0.678811 507.857Z" fill="#C1C1E8"/>
<path d="M347.602 565.226L347.575 574.58C347.57 576.184 346.525 577.783 344.432 579.001L344.459 569.647C346.553 568.429 347.597 566.83 347.602 565.226Z" fill="#B3B3C7"/>
<path d="M345.784 561.169C346.176 561.805 346.567 562.436 346.959 563.072C348.329 565.291 347.497 567.874 344.457 569.647L343.571 566.988C346.263 565.422 347.002 563.138 345.784 561.169Z" fill="#C1C1E8"/>
<path d="M344.465 569.647L344.438 579.001L229.618 645.757L229.64 636.403L344.465 569.647Z" fill="#B3B3C7"/>
<path d="M214.286 636.403L214.259 645.757L3.19189 523.84L3.21911 514.486L214.286 636.403Z" fill="#A1A1BF"/>
<path d="M343.577 566.988L344.463 569.647L229.638 636.403L228.757 633.744L343.577 566.988Z" fill="#C1C1E8"/>
<path d="M215.172 633.744L214.285 636.403L3.21826 514.486L4.11016 511.827L215.172 633.744Z" fill="#C1C1E8"/>
<path d="M229.639 636.403L229.612 645.757C225.403 648.204 218.49 648.204 214.254 645.757L214.281 636.403C218.518 638.85 225.435 638.85 229.639 636.403Z" fill="url(#paint0_linear_30_5653)"/>
<path d="M228.758 633.743L229.639 636.403C225.429 638.85 218.517 638.85 214.281 636.403L215.173 633.743C218.914 635.902 225.043 635.908 228.758 633.743Z" fill="#C1C1E8"/>
<path d="M341.592 562.235C341.2 561.599 340.808 560.968 340.417 560.331C340.993 561.261 340.645 562.349 339.367 563.089L225.385 629.36C223.629 630.383 220.714 630.383 218.946 629.36L8.28717 507.678C6.99285 506.933 6.63931 505.834 7.22665 504.893C6.82966 505.524 6.43817 506.155 6.04117 506.791C5.29612 507.982 5.7475 509.385 7.40075 510.337L218.06 632.02C220.328 633.33 224.026 633.33 226.277 632.02L340.259 565.748C341.88 564.802 342.326 563.42 341.592 562.235Z" fill="#0950E0"/>
<path d="M339.347 559.358C341.125 560.38 341.131 562.066 339.369 563.089L225.387 629.36C223.63 630.383 220.715 630.388 218.948 629.36L8.28864 507.678C6.51574 506.655 6.50488 504.969 8.2669 503.947L21.0034 496.54C22.2814 495.795 23.9347 495.311 25.7239 495.148L37.8732 494.038C40.1845 493.826 42.3216 493.195 43.9749 492.233L102.154 458.406C103.808 457.444 104.89 456.204 105.249 454.866L107.125 447.823C107.402 446.785 108.24 445.827 109.518 445.082L122.254 437.675C124.016 436.653 126.92 436.647 128.693 437.675L339.347 559.358Z" fill="url(#paint1_linear_30_5653)"/>
<path d="M218.946 629.36C220.719 630.388 223.628 630.383 225.385 629.36L339.367 563.089C341.129 562.066 341.123 560.38 339.345 559.358L308.928 541.792L21.6104 515.378L218.946 629.36Z" fill="url(#paint2_linear_30_5653)"/>
<path d="M218.954 562.094C195.661 575.543 157.783 575.472 134.35 561.941C110.916 548.411 110.796 526.538 134.083 513.094C157.375 499.645 195.253 499.716 218.687 513.246C242.126 526.777 242.246 548.645 218.954 562.094Z" fill="#0950E0"/>
<path d="M319.507 469.071C319.583 468.924 319.687 468.728 319.763 468.581C319.757 468.592 319.758 468.603 319.752 468.619L319.507 469.071Z" fill="url(#paint3_linear_30_5653)"/>
<path d="M219.41 383.803C220.448 384.402 222.33 386.202 222.689 386.071L225.017 387.936C234.996 395.925 244.894 404.779 254.481 414.301C258.538 418.337 262.536 422.47 266.44 426.701L309.566 473.351C313.368 477.457 315.407 482.242 314.26 484.369C313.438 485.892 311.209 485.734 308.517 484.179C307.44 483.559 305.156 481.139 305.118 481.644L274.995 454.246C260.398 440.971 245.949 427.234 231.706 413.089L219.045 400.515C214.156 395.659 210.768 389.622 210.735 385.707C210.714 381.53 214.423 380.926 219.41 383.803Z" fill="#CFD0E0"/>
<path d="M324.618 459.347L281.497 412.703C277.353 408.221 273.128 403.838 268.826 399.569C258.667 389.481 248.187 380.105 237.621 371.649L235.293 369.783C233.45 368.309 231.66 367.08 229.958 366.096C224.444 362.915 219.886 362.344 217.548 364.426L207.514 373.356C209.858 371.273 214.41 371.839 219.924 375.026C221.621 376.005 223.41 377.234 225.259 378.713L227.587 380.578C238.154 389.035 248.633 398.416 258.792 408.499C263.088 412.768 267.319 417.151 271.464 421.632L314.584 468.277C321.828 476.113 325.678 485.152 323.508 489.22C323.291 489.622 323.024 489.959 322.709 490.242L332.742 481.313C333.058 481.035 333.324 480.693 333.542 480.29C335.717 476.222 331.867 467.184 324.618 459.347Z" fill="url(#paint4_linear_30_5653)"/>
<path d="M314.59 468.277L271.469 421.632C267.325 417.151 263.1 412.768 258.798 408.499C248.639 398.411 238.165 389.035 227.593 380.578L225.265 378.713C223.422 377.239 221.633 376.01 219.93 375.026C211.8 370.333 205.758 371.317 205.812 378.115C205.861 384.499 211.365 394.31 219.338 402.228L231.998 414.796C246.48 429.181 261.175 443.146 276.016 456.65L306.139 484.048C308.347 486.06 310.544 487.675 312.6 488.861C317.701 491.809 321.959 492.108 323.509 489.215C325.684 485.152 321.834 476.114 314.59 468.277ZM314.264 484.369C313.442 485.892 311.213 485.734 308.521 484.179C307.444 483.559 305.16 481.139 305.122 481.644L274.999 454.246C260.402 440.971 245.953 427.234 231.71 413.089L219.049 400.521C214.16 395.664 210.772 389.628 210.74 385.712C210.707 381.536 214.421 380.926 219.408 383.809C220.447 384.407 222.329 386.207 222.688 386.077L225.015 387.936C234.994 395.925 244.892 404.779 254.48 414.301C258.537 418.331 262.534 422.47 266.439 426.701L309.565 473.351C313.372 477.457 315.411 482.243 314.264 484.369Z" fill="#CFD0E0"/>
<path d="M251.871 427.484C251.871 436.463 244.263 537.529 176.958 537.529C109.653 537.529 101.169 431.16 101.169 427.511C104.258 427.511 251.871 427.484 251.871 427.484Z" fill="url(#paint5_linear_30_5653)"/>
<path d="M197.619 409.592C185.682 416.292 166.598 416.096 154.993 409.162C143.388 402.228 143.66 391.172 155.597 384.472C167.534 377.772 186.617 377.968 198.222 384.902C209.828 391.841 209.556 402.897 197.619 409.592Z" fill="#C0BACA"/>
<path d="M251.158 421.518C250.707 419.767 250.059 417.439 249.45 415.732C248.803 413.921 247.802 411.555 246.987 409.815C245.546 406.753 243.158 402.837 241.053 400.075C239.857 398.508 237.062 394.832 232.477 390.753C227.887 386.675 224.053 384.32 221.764 382.917C220.295 382.014 218.267 380.943 216.733 380.16C215.531 379.545 213.889 378.805 212.649 378.262C209.245 376.771 206.428 375.869 203.703 374.999C203.333 374.879 199.934 373.813 194.882 372.818C191.559 372.165 188.084 371.719 186.121 371.534C184.816 371.415 183.075 371.241 181.765 371.203C180.454 371.159 178.714 371.078 177.403 371.061C176.093 371.05 174.347 371.099 173.036 371.116C170.295 371.148 166.945 371.518 164.253 371.812C164.21 371.817 159.924 372.323 155.373 373.362C153.926 373.693 152.012 374.177 150.581 374.58C149.293 374.944 147.596 375.504 146.323 375.907C144.735 376.413 142.674 377.239 141.135 377.87C139.879 378.387 138.247 379.17 137.007 379.73C135.354 380.486 133.217 381.644 131.661 382.59C129.388 383.977 126.403 385.924 124.292 387.545C122.204 389.149 119.539 391.455 117.696 393.331C116.146 394.903 114.128 397.067 112.818 398.84C112.062 399.857 111.018 401.19 110.327 402.25C109.272 403.865 107.961 406.084 107.009 407.759C106.112 409.336 105.106 411.539 104.459 413.235C103.578 415.552 102.599 418.712 101.925 421.099C98.7704 434.004 105.596 447.6 122.498 457.705C151.501 475.042 199.205 475.526 229.046 458.781C246.916 448.753 254.323 434.815 251.158 421.518ZM197.618 409.592C185.68 416.292 166.597 416.096 154.992 409.162C143.386 402.228 143.658 391.172 155.596 384.472C167.533 377.772 186.616 377.968 198.221 384.902C209.827 391.841 209.555 402.897 197.618 409.592Z" fill="url(#paint6_linear_30_5653)"/>
<path d="M215.031 422.138C193.74 434.429 159.108 434.369 137.687 421.997C116.26 409.624 116.151 389.633 137.442 377.342C158.733 365.052 193.364 365.112 214.791 377.484C236.213 389.851 236.322 409.842 215.031 422.138Z" fill="#D4D5E6"/>
<path d="M127.947 405.355C129.655 406.394 131.982 407.694 133.788 408.548C138.28 410.669 138.28 410.669 142.946 412.425C144.349 412.953 146.247 413.578 147.688 413.975C150.315 414.693 153.844 415.552 156.504 416.129C157.912 416.433 159.81 416.76 161.241 416.934C162.617 417.102 164.449 417.358 165.831 417.494C167.212 417.63 169.061 417.771 170.448 417.847C171.834 417.923 173.684 417.983 175.07 417.994C176.463 418.01 178.317 417.956 179.709 417.94C181.139 417.923 183.048 417.804 184.468 417.668C187.225 417.401 190.89 416.928 193.631 416.515C195.116 416.292 197.085 415.889 198.548 415.536C199.885 415.215 201.675 414.791 202.996 414.421C204.584 413.97 206.683 413.301 208.26 412.795C210.12 412.197 212.54 411.229 214.335 410.462C216.744 409.434 219.877 407.879 222.172 406.623C224.135 405.546 226.642 403.92 228.513 402.685C229.802 401.831 231.46 400.597 232.646 399.612C234.381 398.177 236.605 396.17 238.247 394.631C234.974 397.872 230.884 400.912 225.978 403.648C197.378 419.598 151.947 419.136 124.505 402.62C120.567 400.249 117.217 397.682 114.449 394.968C115.792 396.241 117.641 397.878 119.039 399.079C119.703 399.651 120.633 400.347 121.323 400.88C123.221 402.348 125.902 404.105 127.947 405.355Z" fill="url(#paint7_linear_30_5653)"/>
<path d="M184.469 417.673C222.33 417.673 261.731 380.067 261.731 354.426C261.731 345.208 261.133 330.355 256.592 315.112C248.505 287.953 97.7436 301.402 94.7254 320.724C93.9912 325.407 93.8336 328.773 93.6433 329.893C92.6535 335.636 86.5136 368.043 109.86 390.482C133.202 412.92 155.765 417.673 184.469 417.673Z" fill="url(#paint8_linear_30_5653)"/>
<path d="M257.695 319.114C257.206 317.206 256.499 314.671 255.835 312.811C255.134 310.837 254.041 308.259 253.149 306.367C251.577 303.033 248.978 298.77 246.688 295.757C245.389 294.049 242.337 290.046 237.345 285.603C232.347 281.16 228.171 278.599 225.674 277.071C224.076 276.092 221.862 274.922 220.193 274.069C218.882 273.4 217.093 272.589 215.744 272.002C212.035 270.376 208.968 269.397 205.999 268.451C205.596 268.32 201.893 267.162 196.389 266.074C192.767 265.362 188.982 264.878 186.845 264.677C185.425 264.546 183.527 264.356 182.103 264.312C180.678 264.269 178.78 264.176 177.35 264.16C175.919 264.144 174.016 264.198 172.591 264.22C169.605 264.258 165.956 264.655 163.03 264.981C162.987 264.987 158.315 265.536 153.361 266.667C151.789 267.026 149.701 267.553 148.146 267.994C146.742 268.391 144.893 269 143.507 269.441C141.783 269.99 139.537 270.887 137.856 271.578C136.491 272.138 134.708 272.992 133.364 273.606C131.564 274.428 129.237 275.689 127.545 276.723C125.065 278.229 121.819 280.35 119.518 282.123C117.245 283.874 114.341 286.381 112.334 288.426C110.648 290.139 108.451 292.494 107.021 294.424C106.2 295.534 105.063 296.98 104.307 298.133C103.16 299.895 101.729 302.31 100.691 304.137C99.7173 305.85 98.6187 308.254 97.9117 310.098C96.9491 312.621 95.8887 316.063 95.149 318.663C91.712 332.716 99.1462 347.53 117.555 358.531C149.146 377.413 201.104 377.941 233.604 359.706C253.073 348.775 261.143 333.591 257.695 319.114Z" fill="url(#paint9_linear_30_5653)"/>
<path d="M260.758 346.567C260.926 351.859 260.714 354.86 259.877 358.118C256.864 368.119 248.87 377.304 235.258 384.896C212.15 397.78 179.797 401.652 151.203 396.643C142.284 394.636 138.945 393.88 134.583 355.769C134.001 345.05 137.678 344.277 140.946 344.8C168.692 353.311 203.911 350.994 227.834 337.659C243.431 328.963 251.132 317.303 250.822 305.698C250.838 305.464 250.86 305.149 250.871 304.915C251.404 305.203 251.757 305.393 252.111 305.916C252.111 305.916 259.453 319.87 260.758 346.567Z" fill="#003447"/>
<path d="M112.752 435.761C120.796 440.405 128.616 446.072 136.083 452.68C139.879 456.035 143.572 459.619 147.15 463.431L186.605 505.41C190.086 509.097 191.358 515.345 189.536 519.778C187.845 523.927 183.946 525.314 180.307 523.204C180.046 523.052 179.628 522.453 179.53 522.698L150.777 501.924C136.85 491.863 123.194 480.915 109.87 469.131L98.0308 458.662C93.4572 454.621 90.9013 447.404 91.766 440.971C92.8591 432.699 99.1783 428.55 105.579 431.889L107.858 433.074C109.381 433.999 111.126 434.826 112.752 435.761Z" fill="url(#paint10_linear_30_5653)"/>
<path d="M192.755 497.589L153.3 455.611C149.51 451.576 145.594 447.78 141.581 444.229C133.673 437.235 125.391 431.231 116.874 426.315C115.156 425.325 113.432 424.373 111.697 423.47L109.413 422.279C98.9605 416.841 88.7309 423.568 86.9254 437.061C85.5223 447.551 89.6718 459.266 97.1278 465.862L108.967 476.331C122.514 488.312 136.398 499.444 150.559 509.673L179.312 530.448C179.796 530.796 180.291 531.117 180.78 531.4C187.719 535.408 195.094 532.792 198.33 524.89C201.788 516.433 199.385 504.638 192.755 497.589ZM189.536 519.772C187.845 523.922 183.945 525.309 180.307 523.199C180.046 523.052 179.627 522.448 179.529 522.693L150.777 501.918C136.849 491.857 123.194 480.91 109.87 469.125L98.0304 458.656C93.4568 454.616 90.9009 447.399 91.7656 440.966C92.8587 432.694 99.1779 428.544 105.579 431.884L107.858 433.069C109.38 433.994 111.131 434.82 112.752 435.756C120.795 440.4 128.616 446.067 136.082 452.674C139.878 456.03 143.571 459.614 147.15 463.426L186.605 505.404C190.085 509.097 191.358 515.34 189.536 519.772Z" fill="url(#paint11_linear_30_5653)"/>
<path d="M202.772 494.87L163.317 452.892C159.527 448.857 155.611 445.055 151.598 441.504C143.69 434.51 135.408 428.506 126.891 423.59C125.173 422.6 123.449 421.654 121.714 420.751L119.43 419.56C115.721 417.63 112.039 417.233 108.755 418.125L98.7427 420.844C102.027 419.952 105.709 420.349 109.418 422.28L111.702 423.47C113.437 424.373 115.166 425.319 116.879 426.315C125.401 431.231 133.684 437.235 141.586 444.229C145.605 447.78 149.515 451.581 153.305 455.611L192.761 497.589C199.39 504.638 201.794 516.428 198.335 524.895C196.573 529.208 193.576 531.943 190.085 532.89L200.097 530.171C203.583 529.224 206.579 526.489 208.347 522.176C211.806 513.714 209.396 501.924 202.772 494.87Z" fill="url(#paint12_linear_30_5653)"/>
<path d="M383.597 254.849C382.961 255.415 382.324 255.981 381.688 256.541C378.713 259.178 375.586 261.479 372.361 263.344L375.178 260.989C378.093 259.303 380.91 257.231 383.597 254.849Z" fill="#E40068"/>
<path d="M406.711 213.485C406.537 214.318 406.357 215.15 406.183 215.982C406.95 212.343 407.358 208.743 407.347 205.268L407.999 201.614C408.01 205.464 407.564 209.456 406.711 213.485Z" fill="#E40068"/>
<path d="M375.179 260.989L372.362 263.344L330.775 287.355L331.982 285.93L375.179 260.989Z" fill="#E40068"/>
<path d="M407.174 144.131L407.832 140.481L408 201.619L407.348 205.268L407.174 144.131Z" fill="#E40068"/>
<path d="M298.532 349.825L286.203 342.662L287.856 297.595L300.185 304.757L298.532 349.825Z" fill="#F11A7C"/>
<path d="M305.276 337.67L298.532 349.824L300.185 304.757L306.63 300.749L305.276 337.67Z" fill="#E40068"/>
<path d="M385.071 110.386L397.4 117.548C390.901 113.768 381.895 114.301 371.959 120.039L359.63 112.876C369.566 107.139 378.572 106.606 385.071 110.386Z" fill="#F11A7C"/>
<path d="M374.794 125.684L371.955 120.044C391.702 108.645 407.761 117.793 407.826 140.481L407.174 144.136C407.119 123.655 392.615 115.394 374.794 125.684Z" fill="#E40068"/>
<path d="M306.628 300.749L300.184 304.757C282.324 312.762 268.402 303.376 268.342 282.253L274.651 281.889C274.7 300.95 287.273 309.429 306.628 300.749Z" fill="#E40068"/>
<path d="M278.77 305.181L266.446 298.019C260.029 294.288 256.048 286.359 256.016 275.091L268.339 282.253C268.371 293.521 272.352 301.451 278.77 305.181Z" fill="#F11A7C"/>
<path d="M268.338 282.248L256.015 275.085L255.841 213.948L268.17 221.115L268.338 282.248Z" fill="#F11A7C"/>
<path d="M274.647 281.883L268.339 282.248L268.17 221.115L274.478 220.746L274.647 281.883Z" fill="#E40068"/>
<path d="M303.802 159.39L291.479 152.228L359.632 112.876L371.955 120.044L303.802 159.39Z" fill="#F11A7C"/>
<path d="M306.639 165.03L303.8 159.391L371.953 120.044L374.792 125.684L306.639 165.03Z" fill="#E40068"/>
<path d="M257.137 202.076C257.235 201.619 257.333 201.162 257.425 200.705C257.507 200.33 257.583 199.955 257.664 199.585C260.688 185.288 269.308 170.441 280.244 160.728C280.88 160.163 281.517 159.603 282.148 159.037C270.031 169.794 260.481 186.234 257.137 202.076Z" fill="#E40068"/>
<path d="M374.792 125.684C392.614 115.394 407.118 123.655 407.172 144.131L407.346 205.268C407.406 225.744 392.994 250.7 375.178 260.984L331.982 285.924L305.274 337.664L306.628 300.744C287.273 309.423 274.7 300.945 274.651 281.878L274.477 220.74C274.417 200.265 288.823 175.308 306.645 165.025L374.792 125.684Z" fill="#FF298B"/>
<path d="M274.479 220.746L268.17 221.11C268.105 198.421 284.061 170.789 303.808 159.385L306.646 165.03C288.825 175.319 274.413 200.27 274.479 220.746Z" fill="#E40068"/>
<path d="M268.17 221.115L255.841 213.953C255.776 191.264 271.732 163.632 291.478 152.228L303.802 159.39C284.061 170.789 268.104 198.421 268.17 221.115Z" fill="#F11A7C"/>
<path d="M364.613 216.362L370.144 219.576C369.132 218.989 367.74 219.071 366.195 219.963L360.665 216.749C362.204 215.862 363.601 215.78 364.613 216.362Z" fill="#E40068"/>
<path d="M301.108 276.586L295.578 273.372C294.582 272.79 293.962 271.561 293.957 269.81L299.488 273.024C299.493 274.775 300.113 276.004 301.108 276.586Z" fill="#E40068"/>
<path d="M299.488 273.024L293.957 269.81L293.936 261.669L299.466 264.889L299.488 273.024Z" fill="#E40068"/>
<path d="M304.998 255.295L299.467 252.081L360.659 216.749L366.195 219.968L304.998 255.295Z" fill="#E40068"/>
<path d="M299.466 264.889L293.936 261.675C293.925 258.151 296.405 253.854 299.466 252.087L304.997 255.301C301.93 257.068 299.455 261.365 299.466 264.889Z" fill="#E40068"/>
<path d="M366.195 219.968C369.262 218.195 371.753 219.625 371.764 223.149L371.786 231.29C371.797 234.814 369.317 239.105 366.25 240.873L305.058 276.206C301.99 277.979 299.499 276.554 299.489 273.03L299.467 264.888C299.456 261.364 301.936 257.068 304.998 255.301L366.195 219.968Z" fill="white"/>
<path d="M380.715 165.639L386.246 168.853C385.234 168.266 383.837 168.347 382.298 169.239L376.767 166.025C378.311 165.133 379.709 165.052 380.715 165.639Z" fill="#E40068"/>
<path d="M300.988 235.223L295.458 232.009C294.462 231.432 293.842 230.198 293.837 228.446L299.368 231.66C299.373 233.417 299.993 234.646 300.988 235.223Z" fill="#E40068"/>
<path d="M299.374 231.66L293.838 228.446L293.816 220.305L299.347 223.519L299.374 231.66Z" fill="#E40068"/>
<path d="M304.883 213.937L299.353 210.717L376.767 166.025L382.298 169.239L304.883 213.937Z" fill="#E40068"/>
<path d="M299.347 223.519L293.816 220.305C293.805 216.781 296.285 212.49 299.352 210.723L304.883 213.937C301.816 215.704 299.336 219.995 299.347 223.519Z" fill="#E40068"/>
<path d="M382.298 169.239C385.365 167.466 387.856 168.891 387.867 172.415L387.889 180.562C387.9 184.086 385.42 188.377 382.352 190.144L304.938 234.842C301.871 236.615 299.38 235.19 299.369 231.666L299.347 223.525C299.336 220.001 301.816 215.71 304.878 213.942L382.298 169.239Z" fill="white"/>
<path d="M280.9 124.471L281.563 124.324L301.952 174.341L293.642 168.679L280.9 124.471Z" fill="url(#paint13_linear_30_5653)"/>
<path d="M294.403 111.506C294.463 111.424 294.523 111.348 294.583 111.267C290.792 116.422 286.354 120.942 281.563 124.324L280.905 124.471C286.055 120.833 290.607 116.384 294.403 111.506Z" fill="#6217FF"/>
<path d="M306.154 86.2396C306.083 86.5604 306.012 86.8813 305.942 87.2076C305.882 87.4741 305.827 87.7405 305.768 88.007C306.426 84.9996 306.763 82.0303 306.752 79.1752L307.285 76.2004C307.29 79.4525 306.899 82.8297 306.154 86.2396Z" fill="#6217FF"/>
<path d="M289.01 171.616L278.976 165.791L257.397 126.869L267.425 132.699L289.01 171.616Z" fill="#3A00B5"/>
<path d="M296.959 174.34L289.008 171.616L267.423 132.699L271.029 130.023L296.959 174.34Z" fill="#6217FF"/>
<path d="M306.612 29.4252L307.145 26.4559L307.287 76.2003L306.754 79.1696L306.612 29.4252Z" fill="#6217FF"/>
<path d="M271.028 130.023L267.423 132.699L222.828 158.444L225.118 156.53L271.028 130.023Z" fill="#6217FF"/>
<path d="M288.627 1.96169L298.655 7.79157C293.363 4.71891 286.038 5.14855 277.957 9.82007L267.928 3.99015C276.01 -0.675939 283.335 -1.11097 288.627 1.96169Z" fill="#3A00B5"/>
<path d="M280.269 14.41L277.958 9.82003C294.028 0.542238 307.091 7.98734 307.146 26.4559L306.612 29.4252C306.569 12.7621 294.768 6.03492 280.269 14.41Z" fill="#6217FF"/>
<path d="M225.12 156.53L222.83 158.444C206.76 167.722 193.692 160.272 193.643 141.808L198.776 141.509C198.82 158.178 210.621 164.905 225.12 156.53Z" fill="#6217FF"/>
<path d="M202.125 160.473L192.097 154.643C186.876 151.608 183.635 145.153 183.607 135.984L193.636 141.814C193.663 150.983 196.904 157.438 202.125 160.473Z" fill="#3A00B5"/>
<path d="M198.771 141.515L193.637 141.814L193.501 92.0695L198.63 91.7704L198.771 141.515Z" fill="#6217FF"/>
<path d="M193.636 141.814L183.608 135.984L183.467 86.2396L193.501 92.0694L193.636 141.814Z" fill="#3A00B5"/>
<path d="M222.498 41.8409L212.469 36.011L267.924 3.99011L277.958 9.82004L222.498 41.8409Z" fill="#3A00B5"/>
<path d="M224.81 46.4309L222.499 41.841L277.959 9.82013L280.27 14.41L224.81 46.4309Z" fill="#6217FF"/>
<path d="M184.516 76.5756C184.657 75.9012 184.804 75.2214 184.945 74.5471C187.403 62.9145 194.419 50.8306 203.321 42.9233C203.37 42.8798 203.43 42.8253 203.479 42.7873C203.501 42.7655 203.534 42.7383 203.555 42.7166C203.604 42.6731 203.664 42.6187 203.713 42.5806C203.735 42.5589 203.767 42.5317 203.789 42.5099C203.838 42.4664 203.898 42.412 203.947 42.3739C203.969 42.3522 204.001 42.325 204.023 42.3032C204.072 42.2597 204.132 42.2054 204.181 42.1673C204.23 42.1238 204.289 42.0694 204.338 42.0314C204.387 41.9879 204.447 41.9334 204.496 41.8954C204.545 41.8519 204.605 41.7975 204.654 41.7594C204.676 41.7377 204.708 41.7105 204.73 41.6887C204.779 41.6452 204.839 41.5908 204.882 41.5527C195.012 50.3084 187.24 63.6868 184.516 76.5756Z" fill="#3A00B5"/>
<path d="M280.269 14.4101C294.768 6.03507 306.569 12.7623 306.612 29.4253L306.754 79.1698C306.797 94.6853 296.644 113.355 280.9 124.471L301.946 174.341H296.954L271.024 130.024L225.119 156.53C210.621 164.905 198.814 158.178 198.77 141.515L198.629 91.7704C198.58 75.1073 210.305 54.8006 224.809 46.431L280.269 14.4101Z" fill="url(#paint14_linear_30_5653)"/>
<path d="M198.628 91.7703L193.494 92.0694C193.439 73.6063 206.426 51.1188 222.496 41.841L224.808 46.4309C210.304 54.8005 198.579 75.1073 198.628 91.7703Z" fill="#6217FF"/>
<path d="M193.501 92.0694L183.472 86.2395C183.418 67.7764 196.405 45.2888 212.475 36.011L222.503 41.841C206.433 51.1188 193.446 73.6008 193.501 92.0694Z" fill="#3A00B5"/>
<mask id="mask0_30_5653" style="mask-type:luminance" maskUnits="userSpaceOnUse" x="223" y="93" width="10" height="4">
<path d="M229.401 94.571L232.468 96.3548C230.842 95.4086 228.585 95.5445 226.1 96.9802L223.033 95.1965C225.518 93.7608 227.769 93.6248 229.401 94.571Z" fill="white"/>
</mask>
<g mask="url(#mask0_30_5653)">
<path d="M226.105 96.9802L223.038 95.1965C225.523 93.7608 227.774 93.6248 229.406 94.571L232.473 96.3548C230.842 95.4086 228.585 95.5445 226.105 96.9802Z" fill="#3A00B5"/>
</g>
<mask id="mask1_30_5653" style="mask-type:luminance" maskUnits="userSpaceOnUse" x="214" y="95" width="13" height="24">
<path d="M219.796 118.157L216.729 116.373C215.124 115.438 214.124 113.458 214.118 110.641C214.102 104.953 218.099 98.0461 223.032 95.1964L226.099 96.9801C221.166 99.8298 217.169 106.737 217.185 112.425C217.196 115.237 218.192 117.222 219.796 118.157Z" fill="white"/>
</mask>
<g mask="url(#mask1_30_5653)">
<path d="M219.796 118.157L216.729 116.373C215.124 115.438 214.124 113.458 214.118 110.641C214.102 104.953 218.099 98.0461 223.032 95.1964L226.099 96.9801C221.166 99.8298 217.169 106.737 217.185 112.425C217.196 115.237 218.192 117.222 219.796 118.157Z" fill="#3A00B5"/>
</g>
<path d="M226.104 96.9801C231.037 94.1305 235.061 96.4091 235.077 102.092C235.094 107.764 231.096 114.687 226.164 117.532C221.231 120.381 217.207 118.086 217.191 112.42C217.169 106.737 221.166 99.8298 226.104 96.9801Z" fill="#FEFFFF"/>
<path d="M257.495 78.3539L260.563 80.1376C258.936 79.1914 256.679 79.3274 254.194 80.7631L251.127 78.9793C253.618 77.5381 255.869 77.4077 257.495 78.3539Z" fill="#3A00B5"/>
<mask id="mask2_30_5653" style="mask-type:luminance" maskUnits="userSpaceOnUse" x="251" y="77" width="10" height="4">
<path d="M257.495 78.3539L260.563 80.1376C258.936 79.1914 256.679 79.3274 254.194 80.7631L251.127 78.9793C253.618 77.5381 255.869 77.4077 257.495 78.3539Z" fill="white"/>
</mask>
<g mask="url(#mask2_30_5653)">
<path d="M254.2 80.7578L251.133 78.974C253.618 77.5383 255.87 77.4078 257.501 78.3486L260.568 80.1324C258.937 79.1915 256.685 79.3221 254.2 80.7578Z" fill="#3A00B5"/>
</g>
<mask id="mask3_30_5653" style="mask-type:luminance" maskUnits="userSpaceOnUse" x="242" y="78" width="13" height="24">
<path d="M247.89 101.94L244.823 100.156C243.218 99.2207 242.223 97.2358 242.212 94.4187C242.196 88.7302 246.182 81.8344 251.126 78.9739L254.193 80.7577C249.244 83.6128 245.263 90.514 245.28 96.197C245.291 99.0195 246.286 101.005 247.89 101.94Z" fill="white"/>
</mask>
<g mask="url(#mask3_30_5653)">
<path d="M247.89 101.94L244.823 100.156C243.218 99.2207 242.223 97.2358 242.212 94.4187C242.196 88.7302 246.182 81.8344 251.126 78.9739L254.193 80.7577C249.244 83.6128 245.263 90.514 245.28 96.197C245.291 99.0195 246.286 101.005 247.89 101.94Z" fill="#3A00B5"/>
</g>
<path d="M254.199 80.7577C259.131 77.908 263.155 80.1866 263.172 85.8696C263.188 91.5364 259.191 98.4648 254.258 101.309C249.31 104.164 245.302 101.864 245.285 96.197C245.269 90.514 249.25 83.6128 254.199 80.7577Z" fill="#FEFFFF"/>
<mask id="mask4_30_5653" style="mask-type:luminance" maskUnits="userSpaceOnUse" x="279" y="61" width="10" height="4">
<path d="M285.595 62.1314L288.662 63.9152C287.036 62.9689 284.78 63.1048 282.294 64.5405L279.227 62.7567C281.712 61.321 283.964 61.1851 285.595 62.1314Z" fill="white"/>
</mask>
<g mask="url(#mask4_30_5653)">
<path d="M282.294 64.5353L279.227 62.7515C281.712 61.3158 283.964 61.1798 285.595 62.1261L288.662 63.9099C287.036 62.9691 284.78 63.105 282.294 64.5353Z" fill="#3A00B5"/>
</g>
<mask id="mask5_30_5653" style="mask-type:luminance" maskUnits="userSpaceOnUse" x="270" y="62" width="13" height="24">
<path d="M275.99 85.7175L272.923 83.9338C271.319 82.9984 270.323 81.0134 270.313 78.1963C270.296 72.5133 274.283 65.612 279.226 62.7569L282.293 64.5407C277.344 67.3958 273.363 74.297 273.38 79.9855C273.385 82.7971 274.38 84.7821 275.99 85.7175Z" fill="white"/>
</mask>
<g mask="url(#mask5_30_5653)">
<path d="M275.99 85.7175L272.923 83.9338C271.319 82.9984 270.323 81.0134 270.313 78.1963C270.296 72.5133 274.283 65.612 279.226 62.7569L282.293 64.5407C277.344 67.3958 273.363 74.297 273.38 79.9855C273.385 82.7971 274.38 84.7821 275.99 85.7175Z" fill="#3A00B5"/>
</g>
<path d="M282.293 64.5352C287.226 61.6855 291.25 63.9641 291.267 69.6472C291.283 75.3194 287.286 82.2424 282.353 85.0866C277.404 87.9417 273.396 85.6413 273.38 79.9746C273.364 74.2915 277.35 67.3958 282.293 64.5352Z" fill="#FEFFFF"/>
<path d="M341.924 407.525C341.919 408.379 341.369 409.227 340.255 409.875L226.262 476.119V631.982L340.255 565.737C341.38 565.085 341.924 564.225 341.924 563.366L341.94 563.355V407.52L341.924 407.525Z" fill="url(#paint15_linear_30_5653)"/>
<path d="M7.37411 354.485C6.24838 353.838 5.69365 352.984 5.68277 352.13L5.6665 352.125V507.949L5.67729 507.955C5.67729 508.82 6.23207 509.69 7.37411 510.348L218.05 631.982V476.119L7.37411 354.485Z" fill="url(#paint16_linear_30_5653)"/>
<path d="M218.048 476.114V631.976C220.316 633.287 224.014 633.287 226.266 631.976V476.114C224.014 477.424 220.311 477.424 218.048 476.114Z" fill="url(#paint17_linear_30_5653)"/>
<path d="M274.478 532.123C272.27 532.123 270.464 530.317 270.464 528.109V500.869C270.464 498.661 272.27 496.855 274.478 496.855C276.686 496.855 278.491 498.661 278.491 500.869V528.109C278.486 530.317 276.68 532.123 274.478 532.123Z" fill="url(#paint18_linear_30_5653)"/>
<path d="M35.4964 508.363C33.2885 508.363 31.4829 506.557 31.4829 504.349V477.109C31.4829 474.901 33.2885 473.095 35.4964 473.095C37.7044 473.095 39.51 474.901 39.51 477.109V504.349C39.51 506.557 37.7044 508.363 35.4964 508.363Z" fill="url(#paint19_linear_30_5653)"/>
<path d="M244.85 603.572C242.642 603.572 240.837 601.766 240.837 599.558V583.542C240.837 581.334 242.642 579.529 244.85 579.529C247.058 579.529 248.864 581.334 248.864 583.542V599.558C248.859 601.766 247.053 603.572 244.85 603.572Z" fill="url(#paint20_linear_30_5653)"/>
<path d="M35.4964 463.023C33.2885 463.023 31.4829 461.218 31.4829 459.01V442.994C31.4829 440.786 33.2885 438.981 35.4964 438.981C37.7044 438.981 39.51 440.786 39.51 442.994V459.01C39.51 461.218 37.7044 463.023 35.4964 463.023Z" fill="url(#paint21_linear_30_5653)"/>
<path d="M245.262 567.934C243.054 567.934 241.249 566.129 241.249 563.921V539.187C241.249 536.979 243.054 535.174 245.262 535.174C247.47 535.174 249.276 536.979 249.276 539.187V563.921C249.276 566.129 247.47 567.934 245.262 567.934Z" fill="url(#paint22_linear_30_5653)"/>
<path d="M94.3382 519.435C92.1303 519.435 90.3247 517.63 90.3247 515.422V490.688C90.3247 488.48 92.1303 486.675 94.3382 486.675C96.5462 486.675 98.3518 488.48 98.3518 490.688V515.422C98.3518 517.63 96.5408 519.435 94.3382 519.435Z" fill="url(#paint23_linear_30_5653)"/>
<path d="M67.2497 424.852C65.0417 424.852 63.2363 423.046 63.2363 420.838V419.946C63.2363 417.738 65.0417 415.933 67.2497 415.933C69.4576 415.933 71.2632 417.738 71.2632 419.946V420.838C71.2632 423.046 69.4576 424.852 67.2497 424.852Z" fill="url(#paint24_linear_30_5653)"/>
<path d="M274.478 488.187C272.27 488.187 270.464 486.381 270.464 484.173V476.168C270.464 473.96 272.27 472.154 274.478 472.154C276.686 472.154 278.491 473.96 278.491 476.168V484.173C278.486 486.381 276.68 488.187 274.478 488.187Z" fill="url(#paint25_linear_30_5653)"/>
<path d="M29.8335 533.863L30.7744 533.314C31.291 533.015 32.0033 533.053 32.7918 533.51L31.8511 534.053C31.0626 533.602 30.3501 533.564 29.8335 533.863Z" fill="#C1C1E8"/>
<path d="M31.8467 534.059L32.7875 533.51L50.6035 543.793L49.6627 544.343L31.8467 534.059Z" fill="#C1C1E8"/>
<path d="M52.609 550.515L51.6682 551.064C52.1794 550.765 52.4949 550.14 52.5003 549.248C52.5058 547.453 51.2278 545.24 49.667 544.337L50.6077 543.788C52.1739 544.691 53.4466 546.899 53.4412 548.699C53.4358 549.591 53.1148 550.222 52.609 550.515Z" fill="#C1C1E8"/>
<path d="M49.6627 544.343C51.229 545.245 52.5015 547.453 52.4961 549.253C52.4907 551.043 51.2071 551.777 49.6463 550.874L31.8305 540.59C30.2643 539.687 28.997 537.48 29.0025 535.69C29.0079 533.896 30.286 533.161 31.8522 534.064L49.6627 544.343Z" fill="#9B9BB8"/>
<path d="M57.2856 549.988L58.2263 549.438C58.743 549.139 59.4554 549.177 60.244 549.634L59.3031 550.178C58.5146 549.727 57.8023 549.683 57.2856 549.988Z" fill="#C1C1E8"/>
<path d="M59.2983 550.178L60.2445 549.634L78.0552 559.918L77.1143 560.462L59.2983 550.178Z" fill="#C1C1E8"/>
<path d="M80.0558 566.64L79.115 567.189C79.6262 566.89 79.9417 566.265 79.9471 565.373C79.9526 563.578 78.6746 561.365 77.1138 560.462L78.0546 559.918C79.6209 560.821 80.8934 563.029 80.888 564.829C80.888 565.715 80.567 566.341 80.0558 566.64Z" fill="#C1C1E8"/>
<path d="M77.1149 560.462C78.6811 561.365 79.9537 563.573 79.9482 565.373C79.9428 567.162 78.6593 567.896 77.0985 566.993L59.2825 556.709C57.7162 555.807 56.4492 553.599 56.4546 551.81C56.46 550.015 57.738 549.281 59.3042 550.184L77.1149 560.462Z" fill="#9B9BB8"/>
<path d="M192.533 359.878C185.574 360.237 179.933 367.941 179.933 377.086C179.933 378.673 180.105 380.2 180.425 381.641C184.042 380.236 188.163 379.33 192.539 379.105C196.916 378.88 201.031 379.36 204.653 380.394C204.974 378.923 205.146 377.378 205.146 375.791C205.14 366.646 199.493 359.52 192.533 359.878Z" fill="#00BBFF"/>
<path d="M239.466 344.105C235.001 347.75 232.694 357.224 234.318 365.264C234.599 366.662 234.984 367.919 235.449 369.034C237.555 366.067 240.074 363.3 242.88 361.011C245.686 358.722 248.452 357.171 250.989 356.351C250.937 354.906 250.777 353.466 250.495 352.068C248.866 344.022 243.93 340.459 239.466 344.105Z" fill="#00BBFF"/>
<defs>
<linearGradient id="paint0_linear_30_5653" x1="214.258" y1="641.997" x2="229.642" y2="641.997" gradientUnits="userSpaceOnUse">
<stop offset="0.0936" stop-color="#A1A1BF"/>
<stop offset="0.1633" stop-color="#AEAECA"/>
<stop offset="0.3548" stop-color="#CDCDE4"/>
<stop offset="0.5179" stop-color="#DFDFF4"/>
<stop offset="0.6324" stop-color="#E6E6FA"/>
<stop offset="0.9722" stop-color="#B3B3C7"/>
</linearGradient>
<linearGradient id="paint1_linear_30_5653" x1="6.95245" y1="533.517" x2="340.688" y2="533.517" gradientUnits="userSpaceOnUse">
<stop offset="0.1323" stop-color="#1F55C2"/>
<stop offset="0.7606" stop-color="#2462E0"/>
</linearGradient>
<linearGradient id="paint2_linear_30_5653" x1="21.6158" y1="572.752" x2="340.685" y2="572.752" gradientUnits="userSpaceOnUse">
<stop offset="0.1323" stop-color="#225DD5"/>
<stop offset="0.7606" stop-color="#276AF3"/>
</linearGradient>
<linearGradient id="paint3_linear_30_5653" x1="319.508" y1="468.827" x2="319.765" y2="468.827" gradientUnits="userSpaceOnUse">
<stop offset="0.2633" stop-color="#A8A4B5"/>
<stop offset="0.8514" stop-color="#DBD3E2"/>
</linearGradient>
<linearGradient id="paint4_linear_30_5653" x1="312.747" y1="495.994" x2="231.933" y2="356.019" gradientUnits="userSpaceOnUse">
<stop offset="0.0306" stop-color="#CED0E1"/>
<stop offset="0.1291" stop-color="#EAE9F2"/>
</linearGradient>
<linearGradient id="paint5_linear_30_5653" x1="101.171" y1="482.509" x2="251.869" y2="482.509" gradientUnits="userSpaceOnUse">
<stop offset="0.371" stop-color="#CACCDE"/>
<stop offset="0.9694" stop-color="#EAE9F2"/>
</linearGradient>
<linearGradient id="paint6_linear_30_5653" x1="149.389" y1="473.25" x2="206.601" y2="374.156" gradientUnits="userSpaceOnUse">
<stop stop-color="#CACCDE"/>
<stop offset="0.5597" stop-color="#EAE9F2"/>
</linearGradient>
<linearGradient id="paint7_linear_30_5653" x1="164.919" y1="406.32" x2="281.423" y2="406.32" gradientUnits="userSpaceOnUse">
<stop offset="0.2355" stop-color="#A8A4B5"/>
<stop offset="1" stop-color="#DBD3E2"/>
</linearGradient>
<linearGradient id="paint8_linear_30_5653" x1="105.725" y1="504.605" x2="226.291" y2="232.055" gradientUnits="userSpaceOnUse">
<stop offset="0.371" stop-color="#CACCDE"/>
<stop offset="0.9694" stop-color="#EAE9F2"/>
</linearGradient>
<linearGradient id="paint9_linear_30_5653" x1="146.855" y1="375.455" x2="209.166" y2="267.528" gradientUnits="userSpaceOnUse">
<stop stop-color="#CACCDE"/>
<stop offset="0.5597" stop-color="#EAE9F2"/>
</linearGradient>
<linearGradient id="paint10_linear_30_5653" x1="121.371" y1="506.583" x2="163.808" y2="445.993" gradientUnits="userSpaceOnUse">
<stop stop-color="#CACCDE"/>
<stop offset="1" stop-color="#DFDEEE"/>
</linearGradient>
<linearGradient id="paint11_linear_30_5653" x1="122.617" y1="507.456" x2="165.054" y2="446.866" gradientUnits="userSpaceOnUse">
<stop stop-color="#CACCDE"/>
<stop offset="1" stop-color="#DFDEEE"/>
</linearGradient>
<linearGradient id="paint12_linear_30_5653" x1="174.56" y1="539.168" x2="136.041" y2="398.64" gradientUnits="userSpaceOnUse">
<stop offset="0.0785" stop-color="#D2D3E5"/>
<stop offset="0.2036" stop-color="#EAE9F2"/>
</linearGradient>
<linearGradient id="paint13_linear_30_5653" x1="280.902" y1="149.333" x2="301.95" y2="149.333" gradientUnits="userSpaceOnUse">
<stop stop-color="#864EFF"/>
<stop offset="0.1209" stop-color="#7C3EFF"/>
<stop offset="0.352" stop-color="#7C3EFF"/>
</linearGradient>
<linearGradient id="paint14_linear_30_5653" x1="303.489" y1="173.453" x2="228.817" y2="44.1165" gradientUnits="userSpaceOnUse">
<stop offset="0.349" stop-color="#7C3EFF"/>
</linearGradient>
<linearGradient id="paint15_linear_30_5653" x1="319.35" y1="580.801" x2="249.961" y2="460.616" gradientUnits="userSpaceOnUse">
<stop stop-color="#5CD8FF"/>
<stop offset="0.6282" stop-color="#44D6FF" stop-opacity="0.05"/>
<stop offset="1" stop-color="#40D6FF" stop-opacity="0"/>
</linearGradient>
<linearGradient id="paint16_linear_30_5653" x1="77.8124" y1="551.012" x2="145.899" y2="433.084" gradientUnits="userSpaceOnUse">
<stop stop-color="#5CD8FF"/>
<stop offset="0.135417" stop-color="#55D7FF" stop-opacity="0.735044"/>
<stop offset="0.588542" stop-color="#46D6FF" stop-opacity="0.223958"/>
<stop offset="1" stop-color="#40D6FF" stop-opacity="0"/>
</linearGradient>
<linearGradient id="paint17_linear_30_5653" x1="222.154" y1="632.958" x2="222.154" y2="476.116" gradientUnits="userSpaceOnUse">
<stop stop-color="#5CD8FF"/>
<stop offset="0.598958" stop-color="#44D6FF" stop-opacity="0.1"/>
<stop offset="1" stop-color="#40D6FF" stop-opacity="0.01"/>
</linearGradient>
<linearGradient id="paint18_linear_30_5653" x1="274.475" y1="532.122" x2="274.475" y2="496.857" gradientUnits="userSpaceOnUse">
<stop stop-color="#57D8FF"/>
<stop offset="0.9562" stop-color="#4DD7FF"/>
<stop offset="1" stop-color="#4CD7FF"/>
</linearGradient>
<linearGradient id="paint19_linear_30_5653" x1="35.4948" y1="508.361" x2="35.4948" y2="473.097" gradientUnits="userSpaceOnUse">
<stop stop-color="#57D8FF"/>
<stop offset="0.9562" stop-color="#4DD7FF"/>
<stop offset="1" stop-color="#4CD7FF"/>
</linearGradient>
<linearGradient id="paint20_linear_30_5653" x1="244.849" y1="603.573" x2="244.849" y2="579.533" gradientUnits="userSpaceOnUse">
<stop stop-color="#57D8FF"/>
<stop offset="0.9562" stop-color="#4DD7FF"/>
<stop offset="1" stop-color="#4CD7FF"/>
</linearGradient>
<linearGradient id="paint21_linear_30_5653" x1="35.4948" y1="463.026" x2="35.4948" y2="438.985" gradientUnits="userSpaceOnUse">
<stop stop-color="#57D8FF"/>
<stop offset="0.9562" stop-color="#4DD7FF"/>
<stop offset="1" stop-color="#4CD7FF"/>
</linearGradient>
<linearGradient id="paint22_linear_30_5653" x1="245.261" y1="567.935" x2="245.261" y2="535.173" gradientUnits="userSpaceOnUse">
<stop stop-color="#4BD8FF"/>
<stop offset="1" stop-color="#46D7FF"/>
</linearGradient>
<linearGradient id="paint23_linear_30_5653" x1="94.3366" y1="519.433" x2="94.3366" y2="486.671" gradientUnits="userSpaceOnUse">
<stop stop-color="#4BD8FF"/>
<stop offset="1" stop-color="#46D7FF"/>
</linearGradient>
<linearGradient id="paint24_linear_30_5653" x1="67.2481" y1="424.852" x2="67.2481" y2="415.932" gradientUnits="userSpaceOnUse">
<stop stop-color="#57D8FF"/>
<stop offset="0.7942" stop-color="#4DD7FF"/>
<stop offset="1" stop-color="#49D7FF"/>
</linearGradient>
<linearGradient id="paint25_linear_30_5653" x1="274.475" y1="488.184" x2="274.475" y2="472.152" gradientUnits="userSpaceOnUse">
<stop stop-color="#57D8FF"/>
<stop offset="0.7942" stop-color="#4DD7FF"/>
<stop offset="1" stop-color="#49D7FF"/>
</linearGradient>
</defs>
</svg>
