<svg width="476" height="81" viewBox="0 0 476 81" fill="none" xmlns="http://www.w3.org/2000/svg">
<path d="M296.553 71.5738L296.553 71.5739L296.564 71.567C300.241 69.2153 303.118 65.9218 305.198 61.7194C307.348 57.4418 308.408 52.5429 308.408 47.0481C308.408 41.5552 307.348 36.6858 305.197 32.468C303.116 28.2648 300.236 24.9996 296.553 22.7096C292.875 20.4228 288.771 19.2834 284.266 19.2834C280.488 19.2834 277.094 20.0621 274.108 21.646C272.14 22.6902 270.463 23.9602 269.086 25.4585V4V3H268.086H252H251V4V73.2513V74.2513H252H268.086H269.086V73.2513V68.8731C270.481 70.3869 272.155 71.671 274.1 72.7265L274.108 72.7307L274.116 72.7348C277.042 74.2567 280.436 75 284.266 75C288.771 75 292.875 73.8607 296.553 71.5738ZM286.938 38.389L286.948 38.3988C288.972 40.4121 290.04 43.25 290.04 47.0481C290.04 50.8411 288.974 53.754 286.933 55.8992C284.863 58.0141 282.393 59.0562 279.469 59.0562C276.545 59.0562 274.075 58.0141 272.004 55.8994C270.031 53.8214 268.992 50.943 268.992 47.1417C268.992 43.3404 270.031 40.4621 272.004 38.384C274.075 36.2693 276.545 35.2273 279.469 35.2273C282.463 35.2273 284.927 36.2743 286.928 38.3789L286.938 38.389ZM325.346 71.6061L325.352 71.6091C329.649 73.8758 334.452 75 339.741 75C345.029 75 349.831 73.8764 354.127 71.6108C358.493 69.3415 361.924 66.0915 364.402 61.8744C366.95 57.5848 368.21 52.6636 368.21 47.1417C368.21 41.6246 366.983 36.7352 364.499 32.5063C362.023 28.2304 358.626 24.9466 354.318 22.6744C350.022 20.4076 345.218 19.2834 339.929 19.2834C334.641 19.2834 329.837 20.4076 325.54 22.6744C321.233 24.9468 317.835 28.2308 315.359 32.5072C312.875 36.7359 311.649 41.625 311.649 47.1417C311.649 52.7153 312.841 57.6335 315.261 61.8629L315.261 61.863L315.267 61.873C317.742 66.0838 321.105 69.3342 325.346 71.6061ZM346.834 56.0818L346.829 56.087L346.824 56.0922C344.879 58.1411 342.537 59.1497 339.741 59.1497C336.948 59.1497 334.646 58.1441 332.768 56.1089C330.982 54.1068 330.017 51.1677 330.017 47.1417C330.017 43.0498 331.015 40.1239 332.847 38.1906L332.847 38.1906L332.857 38.1803C334.731 36.1459 337.065 35.1337 339.929 35.1337C342.725 35.1337 345.029 36.1412 346.908 38.1803L346.913 38.1858L346.918 38.1912C348.819 40.1942 349.842 43.1265 349.842 47.1417C349.842 51.1496 348.792 54.0779 346.834 56.0818ZM406 59.6818V58.6818H405H399.262C397.589 58.6818 396.647 58.3462 396.173 57.9135C395.717 57.4978 395.37 56.7105 395.37 55.2834V35.3209H404.906H405.906V34.3209V21.0321V20.0321H404.906H395.37V8.30481V7.30481H394.37H378.284H377.284V8.30481V20.0321H371.887H370.887V21.0321V34.3209V35.3209H371.887H377.284V55.0963C377.284 61.67 378.952 66.6551 382.515 69.7909L382.523 69.798C386.021 72.8096 390.829 74.2513 396.816 74.2513H405H406V73.2513V59.6818Z" fill="#F11A7C" stroke="white" stroke-width="2"/>
<path d="M0 40.1714C0 33.6743 1.3477 27.8956 4.0431 22.8353C6.80119 17.7126 10.6876 13.7456 15.7023 10.9344C20.717 8.06069 26.4839 6.62383 33.003 6.62383C41.2773 6.62383 48.2352 8.84159 53.8767 13.2771C59.5183 17.6502 63.1539 23.6162 64.7837 31.1754H44.9443C43.7533 28.6765 42.0922 26.7711 39.9609 25.4592C37.8923 24.1473 35.479 23.4913 32.7209 23.4913C28.4584 23.4913 25.0422 25.0219 22.4721 28.083C19.9648 31.0817 18.7111 35.1111 18.7111 40.1714C18.7111 45.2941 19.9648 49.386 22.4721 52.4471C25.0422 55.4458 28.4584 56.9451 32.7209 56.9451C35.479 56.9451 37.8923 56.2892 39.9609 54.9772C42.0922 53.6653 43.7533 51.7599 44.9443 49.261H64.7837C63.1539 56.8202 59.5183 62.8175 53.8767 67.253C48.2352 71.6261 41.2773 73.8126 33.003 73.8126C26.4839 73.8126 20.717 72.407 15.7023 69.5957C10.6876 66.722 6.80119 62.755 4.0431 57.6948C1.3477 52.5721 0 46.7309 0 40.1714Z" fill="white"/>
<path d="M108.206 20.3052C114.224 20.3052 118.988 22.3356 122.498 26.3963C126.071 30.3945 127.857 35.8295 127.857 42.7015V73.344H109.428V45.1379C109.428 42.1392 108.645 39.7965 107.078 38.1098C105.511 36.3606 103.411 35.4859 100.778 35.4859C98.0198 35.4859 95.8572 36.3606 94.2901 38.1098C92.723 39.7965 91.9395 42.1392 91.9395 45.1379V73.344H73.5104V4H91.9395V28.2704C93.5692 25.8965 95.7632 23.9911 98.5213 22.5542C101.342 21.0549 104.57 20.3052 108.206 20.3052Z" fill="white"/>
<path d="M134.961 47.0121C134.961 41.577 135.932 36.8291 137.875 32.7684C139.881 28.7077 142.577 25.5841 145.962 23.3976C149.409 21.2111 153.233 20.1178 157.433 20.1178C161.068 20.1178 164.203 20.8362 166.835 22.2731C169.468 23.71 171.505 25.6466 172.947 28.083V20.7738H191.376V73.344H172.947V66.0348C171.505 68.4712 169.437 70.4079 166.741 71.8447C164.109 73.2816 161.006 74 157.433 74C153.233 74 149.409 72.9067 145.962 70.7202C142.577 68.5337 139.881 65.4101 137.875 61.3494C135.932 57.2262 134.961 52.4471 134.961 47.0121ZM172.947 47.0121C172.947 43.6386 172.007 40.9835 170.126 39.0469C168.308 37.1102 166.052 36.1419 163.356 36.1419C160.598 36.1419 158.31 37.1102 156.492 39.0469C154.675 40.921 153.766 43.5761 153.766 47.0121C153.766 50.3855 154.675 53.0718 156.492 55.0709C158.31 57.0076 160.598 57.9759 163.356 57.9759C166.052 57.9759 168.308 57.0076 170.126 55.0709C172.007 53.1343 172.947 50.448 172.947 47.0121Z" fill="white"/>
<path d="M233 57.6948V73.344H225.008C211.531 73.344 204.792 66.6908 204.792 53.3842V36.0482H198.305V20.7738H204.792V8.02945H223.315V20.7738H232.906V36.0482H223.315V53.6653C223.315 55.1022 223.629 56.133 224.256 56.7577C224.945 57.3824 226.073 57.6948 227.641 57.6948H233Z" fill="white"/>
<path d="M475.824 6.82929L457.89 54.4547L441.505 49.4327L454.955 0.432892L475.824 6.82929ZM442.039 76.9314C438.704 75.9094 436.305 74.1965 434.84 71.7929C433.376 69.3893 433.059 66.8329 433.889 64.1237C434.737 61.3569 436.441 59.3885 439.001 58.2183C441.578 56.9905 444.534 56.8876 447.869 57.9096C451.146 58.914 453.508 60.6469 454.955 63.1081C456.419 65.5117 456.727 68.097 455.879 70.8638C455.049 73.5729 453.354 75.5126 450.794 76.6827C448.234 77.8529 445.316 77.9358 442.039 76.9314Z" fill="white"/>
<path d="M296.553 71.5738L296.553 71.5739L296.564 71.567C300.241 69.2153 303.118 65.9218 305.198 61.7194C307.348 57.4418 308.408 52.5429 308.408 47.0481C308.408 41.5552 307.348 36.6858 305.197 32.468C303.116 28.2648 300.236 24.9996 296.553 22.7096C292.875 20.4228 288.771 19.2834 284.266 19.2834C280.488 19.2834 277.094 20.0621 274.108 21.646C272.14 22.6902 270.463 23.9602 269.086 25.4585V4V3H268.086H252H251V4V73.2513V74.2513H252H268.086H269.086V73.2513V68.8731C270.481 70.3869 272.155 71.671 274.1 72.7265L274.108 72.7307L274.116 72.7348C277.042 74.2567 280.436 75 284.266 75C288.771 75 292.875 73.8607 296.553 71.5738ZM286.938 38.389L286.948 38.3988C288.972 40.4121 290.04 43.25 290.04 47.0481C290.04 50.8411 288.974 53.754 286.933 55.8992C284.863 58.0141 282.393 59.0562 279.469 59.0562C276.545 59.0562 274.075 58.0141 272.004 55.8994C270.031 53.8214 268.992 50.943 268.992 47.1417C268.992 43.3404 270.031 40.4621 272.004 38.384C274.075 36.2693 276.545 35.2273 279.469 35.2273C282.463 35.2273 284.927 36.2743 286.928 38.3789L286.938 38.389ZM325.346 71.6061L325.352 71.6091C329.649 73.8758 334.452 75 339.741 75C345.029 75 349.831 73.8764 354.127 71.6108C358.493 69.3415 361.924 66.0915 364.402 61.8744C366.95 57.5848 368.21 52.6636 368.21 47.1417C368.21 41.6246 366.983 36.7352 364.499 32.5063C362.023 28.2304 358.626 24.9466 354.318 22.6744C350.022 20.4076 345.218 19.2834 339.929 19.2834C334.641 19.2834 329.837 20.4076 325.54 22.6744C321.233 24.9468 317.835 28.2308 315.359 32.5072C312.875 36.7359 311.649 41.625 311.649 47.1417C311.649 52.7153 312.841 57.6335 315.261 61.8629L315.261 61.863L315.267 61.873C317.742 66.0838 321.105 69.3342 325.346 71.6061ZM346.834 56.0818L346.829 56.087L346.824 56.0922C344.879 58.1411 342.537 59.1497 339.741 59.1497C336.948 59.1497 334.646 58.1441 332.768 56.1089C330.982 54.1068 330.017 51.1677 330.017 47.1417C330.017 43.0498 331.015 40.1239 332.847 38.1906L332.847 38.1906L332.857 38.1803C334.731 36.1459 337.065 35.1337 339.929 35.1337C342.725 35.1337 345.029 36.1412 346.908 38.1803L346.913 38.1858L346.918 38.1912C348.819 40.1942 349.842 43.1265 349.842 47.1417C349.842 51.1496 348.792 54.0779 346.834 56.0818ZM406 59.6818V58.6818H405H399.262C397.589 58.6818 396.647 58.3462 396.173 57.9135C395.717 57.4978 395.37 56.7105 395.37 55.2834V35.3209H404.906H405.906V34.3209V21.0321V20.0321H404.906H395.37V8.30481V7.30481H394.37H378.284H377.284V8.30481V20.0321H371.887H370.887V21.0321V34.3209V35.3209H371.887H377.284V55.0963C377.284 61.67 378.952 66.6551 382.515 69.7909L382.523 69.798C386.021 72.8096 390.829 74.2513 396.816 74.2513H405H406V73.2513V59.6818Z" fill="#F11A7C" stroke="white" stroke-width="2"/>
<path d="M0 40.1714C0 33.6743 1.3477 27.8956 4.0431 22.8353C6.80119 17.7126 10.6876 13.7456 15.7023 10.9344C20.717 8.06069 26.4839 6.62383 33.003 6.62383C41.2773 6.62383 48.2352 8.84159 53.8767 13.2771C59.5183 17.6502 63.1539 23.6162 64.7837 31.1754H44.9443C43.7533 28.6765 42.0922 26.7711 39.9609 25.4592C37.8923 24.1473 35.479 23.4913 32.7209 23.4913C28.4584 23.4913 25.0422 25.0219 22.4721 28.083C19.9648 31.0817 18.7111 35.1111 18.7111 40.1714C18.7111 45.2941 19.9648 49.386 22.4721 52.4471C25.0422 55.4458 28.4584 56.9451 32.7209 56.9451C35.479 56.9451 37.8923 56.2892 39.9609 54.9772C42.0922 53.6653 43.7533 51.7599 44.9443 49.261H64.7837C63.1539 56.8202 59.5183 62.8175 53.8767 67.253C48.2352 71.6261 41.2773 73.8126 33.003 73.8126C26.4839 73.8126 20.717 72.407 15.7023 69.5957C10.6876 66.722 6.80119 62.755 4.0431 57.6948C1.3477 52.5721 0 46.7309 0 40.1714Z" fill="white"/>
<path d="M108.206 20.3052C114.224 20.3052 118.988 22.3356 122.498 26.3963C126.071 30.3945 127.857 35.8295 127.857 42.7015V73.344H109.428V45.1379C109.428 42.1392 108.645 39.7965 107.078 38.1098C105.511 36.3606 103.411 35.4859 100.778 35.4859C98.0198 35.4859 95.8572 36.3606 94.2901 38.1098C92.723 39.7965 91.9395 42.1392 91.9395 45.1379V73.344H73.5104V4H91.9395V28.2704C93.5692 25.8965 95.7632 23.9911 98.5213 22.5542C101.342 21.0549 104.57 20.3052 108.206 20.3052Z" fill="white"/>
<path d="M134.961 47.0121C134.961 41.577 135.932 36.8291 137.875 32.7684C139.881 28.7077 142.577 25.5841 145.962 23.3976C149.409 21.2111 153.233 20.1178 157.433 20.1178C161.068 20.1178 164.203 20.8362 166.835 22.2731C169.468 23.71 171.505 25.6466 172.947 28.083V20.7738H191.376V73.344H172.947V66.0348C171.505 68.4712 169.437 70.4079 166.741 71.8447C164.109 73.2816 161.006 74 157.433 74C153.233 74 149.409 72.9067 145.962 70.7202C142.577 68.5337 139.881 65.4101 137.875 61.3494C135.932 57.2262 134.961 52.4471 134.961 47.0121ZM172.947 47.0121C172.947 43.6386 172.007 40.9835 170.126 39.0469C168.308 37.1102 166.052 36.1419 163.356 36.1419C160.598 36.1419 158.31 37.1102 156.492 39.0469C154.675 40.921 153.766 43.5761 153.766 47.0121C153.766 50.3855 154.675 53.0718 156.492 55.0709C158.31 57.0076 160.598 57.9759 163.356 57.9759C166.052 57.9759 168.308 57.0076 170.126 55.0709C172.007 53.1343 172.947 50.448 172.947 47.0121Z" fill="white"/>
<path d="M233 57.6948V73.344H225.008C211.531 73.344 204.792 66.6908 204.792 53.3842V36.0482H198.305V20.7738H204.792V8.02945H223.315V20.7738H232.906V36.0482H223.315V53.6653C223.315 55.1022 223.629 56.133 224.256 56.7577C224.945 57.3824 226.073 57.6948 227.641 57.6948H233Z" fill="white"/>
<path d="M475.824 6.82929L457.89 54.4547L441.505 49.4327L454.955 0.432892L475.824 6.82929ZM442.039 76.9314C438.704 75.9094 436.305 74.1965 434.84 71.7929C433.376 69.3893 433.059 66.8329 433.889 64.1237C434.737 61.3569 436.441 59.3885 439.001 58.2183C441.578 56.9905 444.534 56.8876 447.869 57.9096C451.146 58.914 453.508 60.6469 454.955 63.1081C456.419 65.5117 456.727 68.097 455.879 70.8638C455.049 73.5729 453.354 75.5126 450.794 76.6827C448.234 77.8529 445.316 77.9358 442.039 76.9314Z" fill="white"/>
<path d="M296.553 71.5738L296.553 71.5739L296.564 71.567C300.241 69.2153 303.118 65.9218 305.198 61.7194C307.348 57.4418 308.408 52.5429 308.408 47.0481C308.408 41.5552 307.348 36.6858 305.197 32.468C303.116 28.2648 300.236 24.9996 296.553 22.7096C292.875 20.4228 288.771 19.2834 284.266 19.2834C280.488 19.2834 277.094 20.0621 274.108 21.646C272.14 22.6902 270.463 23.9602 269.086 25.4585V4V3H268.086H252H251V4V73.2513V74.2513H252H268.086H269.086V73.2513V68.8731C270.481 70.3869 272.155 71.671 274.1 72.7265L274.108 72.7307L274.116 72.7348C277.042 74.2567 280.436 75 284.266 75C288.771 75 292.875 73.8607 296.553 71.5738ZM286.938 38.389L286.948 38.3988C288.972 40.4121 290.04 43.25 290.04 47.0481C290.04 50.8411 288.974 53.754 286.933 55.8992C284.863 58.0141 282.393 59.0562 279.469 59.0562C276.545 59.0562 274.075 58.0141 272.004 55.8994C270.031 53.8214 268.992 50.943 268.992 47.1417C268.992 43.3404 270.031 40.4621 272.004 38.384C274.075 36.2693 276.545 35.2273 279.469 35.2273C282.463 35.2273 284.927 36.2743 286.928 38.3789L286.938 38.389ZM325.346 71.6061L325.352 71.6091C329.649 73.8758 334.452 75 339.741 75C345.029 75 349.831 73.8764 354.127 71.6108C358.493 69.3415 361.924 66.0915 364.402 61.8744C366.95 57.5848 368.21 52.6636 368.21 47.1417C368.21 41.6246 366.983 36.7352 364.499 32.5063C362.023 28.2304 358.626 24.9466 354.318 22.6744C350.022 20.4076 345.218 19.2834 339.929 19.2834C334.641 19.2834 329.837 20.4076 325.54 22.6744C321.233 24.9468 317.835 28.2308 315.359 32.5072C312.875 36.7359 311.649 41.625 311.649 47.1417C311.649 52.7153 312.841 57.6335 315.261 61.8629L315.261 61.863L315.267 61.873C317.742 66.0838 321.105 69.3342 325.346 71.6061ZM346.834 56.0818L346.829 56.087L346.824 56.0922C344.879 58.1411 342.537 59.1497 339.741 59.1497C336.948 59.1497 334.646 58.1441 332.768 56.1089C330.982 54.1068 330.017 51.1677 330.017 47.1417C330.017 43.0498 331.015 40.1239 332.847 38.1906L332.847 38.1906L332.857 38.1803C334.731 36.1459 337.065 35.1337 339.929 35.1337C342.725 35.1337 345.029 36.1412 346.908 38.1803L346.913 38.1858L346.918 38.1912C348.819 40.1942 349.842 43.1265 349.842 47.1417C349.842 51.1496 348.792 54.0779 346.834 56.0818ZM406 59.6818V58.6818H405H399.262C397.589 58.6818 396.647 58.3462 396.173 57.9135C395.717 57.4978 395.37 56.7105 395.37 55.2834V35.3209H404.906H405.906V34.3209V21.0321V20.0321H404.906H395.37V8.30481V7.30481H394.37H378.284H377.284V8.30481V20.0321H371.887H370.887V21.0321V34.3209V35.3209H371.887H377.284V55.0963C377.284 61.67 378.952 66.6551 382.515 69.7909L382.523 69.798C386.021 72.8096 390.829 74.2513 396.816 74.2513H405H406V73.2513V59.6818Z" fill="#F11A7C" stroke="white" stroke-width="2"/>
<path d="M0 40.1714C0 33.6743 1.3477 27.8956 4.0431 22.8353C6.80119 17.7126 10.6876 13.7456 15.7023 10.9344C20.717 8.06069 26.4839 6.62383 33.003 6.62383C41.2773 6.62383 48.2352 8.84159 53.8767 13.2771C59.5183 17.6502 63.1539 23.6162 64.7837 31.1754H44.9443C43.7533 28.6765 42.0922 26.7711 39.9609 25.4592C37.8923 24.1473 35.479 23.4913 32.7209 23.4913C28.4584 23.4913 25.0422 25.0219 22.4721 28.083C19.9648 31.0817 18.7111 35.1111 18.7111 40.1714C18.7111 45.2941 19.9648 49.386 22.4721 52.4471C25.0422 55.4458 28.4584 56.9451 32.7209 56.9451C35.479 56.9451 37.8923 56.2892 39.9609 54.9772C42.0922 53.6653 43.7533 51.7599 44.9443 49.261H64.7837C63.1539 56.8202 59.5183 62.8175 53.8767 67.253C48.2352 71.6261 41.2773 73.8126 33.003 73.8126C26.4839 73.8126 20.717 72.407 15.7023 69.5957C10.6876 66.722 6.80119 62.755 4.0431 57.6948C1.3477 52.5721 0 46.7309 0 40.1714Z" fill="white"/>
<path d="M108.206 20.3052C114.224 20.3052 118.988 22.3356 122.498 26.3963C126.071 30.3945 127.857 35.8295 127.857 42.7015V73.344H109.428V45.1379C109.428 42.1392 108.645 39.7965 107.078 38.1098C105.511 36.3606 103.411 35.4859 100.778 35.4859C98.0198 35.4859 95.8572 36.3606 94.2901 38.1098C92.723 39.7965 91.9395 42.1392 91.9395 45.1379V73.344H73.5104V4H91.9395V28.2704C93.5692 25.8965 95.7632 23.9911 98.5213 22.5542C101.342 21.0549 104.57 20.3052 108.206 20.3052Z" fill="white"/>
<path d="M134.961 47.0121C134.961 41.577 135.932 36.8291 137.875 32.7684C139.881 28.7077 142.577 25.5841 145.962 23.3976C149.409 21.2111 153.233 20.1178 157.433 20.1178C161.068 20.1178 164.203 20.8362 166.835 22.2731C169.468 23.71 171.505 25.6466 172.947 28.083V20.7738H191.376V73.344H172.947V66.0348C171.505 68.4712 169.437 70.4079 166.741 71.8447C164.109 73.2816 161.006 74 157.433 74C153.233 74 149.409 72.9067 145.962 70.7202C142.577 68.5337 139.881 65.4101 137.875 61.3494C135.932 57.2262 134.961 52.4471 134.961 47.0121ZM172.947 47.0121C172.947 43.6386 172.007 40.9835 170.126 39.0469C168.308 37.1102 166.052 36.1419 163.356 36.1419C160.598 36.1419 158.31 37.1102 156.492 39.0469C154.675 40.921 153.766 43.5761 153.766 47.0121C153.766 50.3855 154.675 53.0718 156.492 55.0709C158.31 57.0076 160.598 57.9759 163.356 57.9759C166.052 57.9759 168.308 57.0076 170.126 55.0709C172.007 53.1343 172.947 50.448 172.947 47.0121Z" fill="white"/>
<path d="M233 57.6948V73.344H225.008C211.531 73.344 204.792 66.6908 204.792 53.3842V36.0482H198.305V20.7738H204.792V8.02945H223.315V20.7738H232.906V36.0482H223.315V53.6653C223.315 55.1022 223.629 56.133 224.256 56.7577C224.945 57.3824 226.073 57.6948 227.641 57.6948H233Z" fill="white"/>
<path d="M475.824 6.82929L457.89 54.4547L441.505 49.4327L454.955 0.432892L475.824 6.82929ZM442.039 76.9314C438.704 75.9094 436.305 74.1965 434.84 71.7929C433.376 69.3893 433.059 66.8329 433.889 64.1237C434.737 61.3569 436.441 59.3885 439.001 58.2183C441.578 56.9905 444.534 56.8876 447.869 57.9096C451.146 58.914 453.508 60.6469 454.955 63.1081C456.419 65.5117 456.727 68.097 455.879 70.8638C455.049 73.5729 453.354 75.5126 450.794 76.6827C448.234 77.8529 445.316 77.9358 442.039 76.9314Z" fill="white"/>
<path d="M296.553 71.5738L296.553 71.5739L296.564 71.567C300.241 69.2153 303.118 65.9218 305.198 61.7194C307.348 57.4418 308.408 52.5429 308.408 47.0481C308.408 41.5552 307.348 36.6858 305.197 32.468C303.116 28.2648 300.236 24.9996 296.553 22.7096C292.875 20.4228 288.771 19.2834 284.266 19.2834C280.488 19.2834 277.094 20.0621 274.108 21.646C272.14 22.6902 270.463 23.9602 269.086 25.4585V4V3H268.086H252H251V4V73.2513V74.2513H252H268.086H269.086V73.2513V68.8731C270.481 70.3869 272.155 71.671 274.1 72.7265L274.108 72.7307L274.116 72.7348C277.042 74.2567 280.436 75 284.266 75C288.771 75 292.875 73.8607 296.553 71.5738ZM286.938 38.389L286.948 38.3988C288.972 40.4121 290.04 43.25 290.04 47.0481C290.04 50.8411 288.974 53.754 286.933 55.8992C284.863 58.0141 282.393 59.0562 279.469 59.0562C276.545 59.0562 274.075 58.0141 272.004 55.8994C270.031 53.8214 268.992 50.943 268.992 47.1417C268.992 43.3404 270.031 40.4621 272.004 38.384C274.075 36.2693 276.545 35.2273 279.469 35.2273C282.463 35.2273 284.927 36.2743 286.928 38.3789L286.938 38.389ZM325.346 71.6061L325.352 71.6091C329.649 73.8758 334.452 75 339.741 75C345.029 75 349.831 73.8764 354.127 71.6108C358.493 69.3415 361.924 66.0915 364.402 61.8744C366.95 57.5848 368.21 52.6636 368.21 47.1417C368.21 41.6246 366.983 36.7352 364.499 32.5063C362.023 28.2304 358.626 24.9466 354.318 22.6744C350.022 20.4076 345.218 19.2834 339.929 19.2834C334.641 19.2834 329.837 20.4076 325.54 22.6744C321.233 24.9468 317.835 28.2308 315.359 32.5072C312.875 36.7359 311.649 41.625 311.649 47.1417C311.649 52.7153 312.841 57.6335 315.261 61.8629L315.261 61.863L315.267 61.873C317.742 66.0838 321.105 69.3342 325.346 71.6061ZM346.834 56.0818L346.829 56.087L346.824 56.0922C344.879 58.1411 342.537 59.1497 339.741 59.1497C336.948 59.1497 334.646 58.1441 332.768 56.1089C330.982 54.1068 330.017 51.1677 330.017 47.1417C330.017 43.0498 331.015 40.1239 332.847 38.1906L332.847 38.1906L332.857 38.1803C334.731 36.1459 337.065 35.1337 339.929 35.1337C342.725 35.1337 345.029 36.1412 346.908 38.1803L346.913 38.1858L346.918 38.1912C348.819 40.1942 349.842 43.1265 349.842 47.1417C349.842 51.1496 348.792 54.0779 346.834 56.0818ZM406 59.6818V58.6818H405H399.262C397.589 58.6818 396.647 58.3462 396.173 57.9135C395.717 57.4978 395.37 56.7105 395.37 55.2834V35.3209H404.906H405.906V34.3209V21.0321V20.0321H404.906H395.37V8.30481V7.30481H394.37H378.284H377.284V8.30481V20.0321H371.887H370.887V21.0321V34.3209V35.3209H371.887H377.284V55.0963C377.284 61.67 378.952 66.6551 382.515 69.7909L382.523 69.798C386.021 72.8096 390.829 74.2513 396.816 74.2513H405H406V73.2513V59.6818Z" fill="#F11A7C" stroke="white" stroke-width="2"/>
<path d="M0 40.1714C0 33.6743 1.3477 27.8956 4.0431 22.8353C6.80119 17.7126 10.6876 13.7456 15.7023 10.9344C20.717 8.06069 26.4839 6.62383 33.003 6.62383C41.2773 6.62383 48.2352 8.84159 53.8767 13.2771C59.5183 17.6502 63.1539 23.6162 64.7837 31.1754H44.9443C43.7533 28.6765 42.0922 26.7711 39.9609 25.4592C37.8923 24.1473 35.479 23.4913 32.7209 23.4913C28.4584 23.4913 25.0422 25.0219 22.4721 28.083C19.9648 31.0817 18.7111 35.1111 18.7111 40.1714C18.7111 45.2941 19.9648 49.386 22.4721 52.4471C25.0422 55.4458 28.4584 56.9451 32.7209 56.9451C35.479 56.9451 37.8923 56.2892 39.9609 54.9772C42.0922 53.6653 43.7533 51.7599 44.9443 49.261H64.7837C63.1539 56.8202 59.5183 62.8175 53.8767 67.253C48.2352 71.6261 41.2773 73.8126 33.003 73.8126C26.4839 73.8126 20.717 72.407 15.7023 69.5957C10.6876 66.722 6.80119 62.755 4.0431 57.6948C1.3477 52.5721 0 46.7309 0 40.1714Z" fill="white"/>
<path d="M108.206 20.3052C114.224 20.3052 118.988 22.3356 122.498 26.3963C126.071 30.3945 127.857 35.8295 127.857 42.7015V73.344H109.428V45.1379C109.428 42.1392 108.645 39.7965 107.078 38.1098C105.511 36.3606 103.411 35.4859 100.778 35.4859C98.0198 35.4859 95.8572 36.3606 94.2901 38.1098C92.723 39.7965 91.9395 42.1392 91.9395 45.1379V73.344H73.5104V4H91.9395V28.2704C93.5692 25.8965 95.7632 23.9911 98.5213 22.5542C101.342 21.0549 104.57 20.3052 108.206 20.3052Z" fill="white"/>
<path d="M134.961 47.0121C134.961 41.577 135.932 36.8291 137.875 32.7684C139.881 28.7077 142.577 25.5841 145.962 23.3976C149.409 21.2111 153.233 20.1178 157.433 20.1178C161.068 20.1178 164.203 20.8362 166.835 22.2731C169.468 23.71 171.505 25.6466 172.947 28.083V20.7738H191.376V73.344H172.947V66.0348C171.505 68.4712 169.437 70.4079 166.741 71.8447C164.109 73.2816 161.006 74 157.433 74C153.233 74 149.409 72.9067 145.962 70.7202C142.577 68.5337 139.881 65.4101 137.875 61.3494C135.932 57.2262 134.961 52.4471 134.961 47.0121ZM172.947 47.0121C172.947 43.6386 172.007 40.9835 170.126 39.0469C168.308 37.1102 166.052 36.1419 163.356 36.1419C160.598 36.1419 158.31 37.1102 156.492 39.0469C154.675 40.921 153.766 43.5761 153.766 47.0121C153.766 50.3855 154.675 53.0718 156.492 55.0709C158.31 57.0076 160.598 57.9759 163.356 57.9759C166.052 57.9759 168.308 57.0076 170.126 55.0709C172.007 53.1343 172.947 50.448 172.947 47.0121Z" fill="white"/>
<path d="M233 57.6948V73.344H225.008C211.531 73.344 204.792 66.6908 204.792 53.3842V36.0482H198.305V20.7738H204.792V8.02945H223.315V20.7738H232.906V36.0482H223.315V53.6653C223.315 55.1022 223.629 56.133 224.256 56.7577C224.945 57.3824 226.073 57.6948 227.641 57.6948H233Z" fill="white"/>
<path d="M475.824 6.82929L457.89 54.4547L441.505 49.4327L454.955 0.432892L475.824 6.82929ZM442.039 76.9314C438.704 75.9094 436.305 74.1965 434.84 71.7929C433.376 69.3893 433.059 66.8329 433.889 64.1237C434.737 61.3569 436.441 59.3885 439.001 58.2183C441.578 56.9905 444.534 56.8876 447.869 57.9096C451.146 58.914 453.508 60.6469 454.955 63.1081C456.419 65.5117 456.727 68.097 455.879 70.8638C455.049 73.5729 453.354 75.5126 450.794 76.6827C448.234 77.8529 445.316 77.9358 442.039 76.9314Z" fill="white"/>
</svg>
