<svg width="278" height="118" viewBox="0 0 278 118" fill="none" xmlns="http://www.w3.org/2000/svg">
<g filter="url(#filter0_d_553_18)">
<path d="M263 65.1706H265.5V62.6706V55.4235V52.9235H263H245.871V35V32.5H243.371H235.537H233.037V35V52.9235H216H213.5V55.4235V62.6706V65.1706H216H233.037V83V85.5H235.537H243.371H245.871V83V65.1706H263Z" fill="white" stroke="white" stroke-width="5"/>
<path d="M263 65.1706H265.5V62.6706V55.4235V52.9235H263H245.871V35V32.5H243.371H235.537H233.037V35V52.9235H216H213.5V55.4235V62.6706V65.1706H216H233.037V83V85.5H235.537H243.371H245.871V83V65.1706H263Z" fill="white" stroke="white" stroke-width="5"/>
<path d="M263 65.1706H265.5V62.6706V55.4235V52.9235H263H245.871V35V32.5H243.371H235.537H233.037V35V52.9235H216H213.5V55.4235V62.6706V65.1706H216H233.037V83V85.5H235.537H243.371H245.871V83V65.1706H263Z" fill="white" stroke="white" stroke-width="5"/>
</g>
<g filter="url(#filter1_d_553_18)">
<path d="M150.409 13V29.296C150.409 29.296 128.588 33.2071 126.021 55.6958C126.021 55.6958 122.491 82.7468 150.409 89.5912V105.561C150.409 105.561 111.259 102.302 109.013 59.2803C109.013 59.2803 107.087 21.4739 150.409 13Z" fill="white" stroke="white" stroke-width="2"/>
<path d="M162.591 105.562V89.2655C162.591 89.2655 184.412 85.3544 186.979 62.8658C186.979 62.8658 190.509 35.8147 162.591 28.9704V13.0002C162.591 13.0002 201.741 16.2591 203.987 59.2812C203.987 59.2812 205.913 97.0876 162.591 105.562Z" fill="white" stroke="white" stroke-width="2"/>
</g>
<g filter="url(#filter2_d_553_18)">
<path d="M83.6514 39.0055L83.8987 39.6446H84.584H97H98.2968L97.9671 38.3904L97 38.6446C97.9671 38.3904 97.967 38.3897 97.9668 38.389L97.9662 38.3869L97.9647 38.381L97.9595 38.362C97.9577 38.3555 97.9557 38.3479 97.9533 38.3393C97.9498 38.3269 97.9458 38.3123 97.941 38.2956C97.925 38.2389 97.9014 38.1577 97.8696 38.0536C97.8061 37.8453 97.7098 37.5453 97.576 37.1666C97.3085 36.4094 96.8903 35.3365 96.2821 34.0531C95.0664 31.4879 93.0866 28.0717 90.0248 24.6549C83.879 17.7965 73.4268 11 56.2509 11C39.0245 11 27.6715 18.8064 20.6582 28.5924C13.6771 38.3333 11 50.0199 11 57.9063C11 73.5222 16.8106 91.6018 33.7945 101.153C50.1649 110.36 71.8511 108.859 84.2304 95.4578L87.4668 104.161L87.709 104.813H88.4041H97H98V103.813V55.9798V54.9798H97H55.6142H54.6142V55.9798V65.29V66.29H55.6142H83.7689C83.6916 66.7997 83.5749 67.473 83.4028 68.2755C82.9906 70.197 82.2624 72.8506 81.0005 75.7676C78.4762 81.6024 73.8386 88.4455 65.3578 92.6434L65.8015 93.5396L65.3578 92.6434C56.9367 96.8123 47.8457 95.8886 40.6096 91.0627C33.3683 86.2333 27.9373 77.4562 27.0043 65.8521C25.1115 42.3122 35.5273 25.0805 50.976 22.9423C58.9502 21.8386 65.9029 22.7175 71.4522 25.419C76.9853 28.1125 81.1917 32.6496 83.6514 39.0055Z" fill="white" stroke="white" stroke-width="2"/>
<path d="M83.6514 39.0055L83.8987 39.6446H84.584H97H98.2968L97.9671 38.3904L97 38.6446C97.9671 38.3904 97.967 38.3897 97.9668 38.389L97.9662 38.3869L97.9647 38.381L97.9595 38.362C97.9577 38.3555 97.9557 38.3479 97.9533 38.3393C97.9498 38.3269 97.9458 38.3123 97.941 38.2956C97.925 38.2389 97.9014 38.1577 97.8696 38.0536C97.8061 37.8453 97.7098 37.5453 97.576 37.1666C97.3085 36.4094 96.8903 35.3365 96.2821 34.0531C95.0664 31.4879 93.0866 28.0717 90.0248 24.6549C83.879 17.7965 73.4268 11 56.2509 11C39.0245 11 27.6715 18.8064 20.6582 28.5924C13.6771 38.3333 11 50.0199 11 57.9063C11 73.5222 16.8106 91.6018 33.7945 101.153C50.1649 110.36 71.8511 108.859 84.2304 95.4578L87.4668 104.161L87.709 104.813H88.4041H97H98V103.813V55.9798V54.9798H97H55.6142H54.6142V55.9798V65.29V66.29H55.6142H83.7689C83.6916 66.7997 83.5749 67.473 83.4028 68.2755C82.9906 70.197 82.2624 72.8506 81.0005 75.7676C78.4762 81.6024 73.8387 88.4455 65.3578 92.6434L65.8015 93.5396L65.3578 92.6434C56.9367 96.8123 47.8457 95.8886 40.6096 91.0627C33.3683 86.2333 27.9373 77.4562 27.0043 65.8521C25.1115 42.3122 35.5273 25.0805 50.976 22.9423C58.9502 21.8386 65.9029 22.7175 71.4522 25.419C76.9853 28.1125 81.1917 32.6496 83.6514 39.0055Z" fill="white" stroke="white" stroke-width="2"/>
</g>
<defs>
<filter id="filter0_d_553_18" x="201" y="20" width="77" height="78" filterUnits="userSpaceOnUse" color-interpolation-filters="sRGB">
<feFlood flood-opacity="0" result="BackgroundImageFix"/>
<feColorMatrix in="SourceAlpha" type="matrix" values="0 0 0 0 0 0 0 0 0 0 0 0 0 0 0 0 0 0 127 0" result="hardAlpha"/>
<feOffset/>
<feGaussianBlur stdDeviation="5"/>
<feComposite in2="hardAlpha" operator="out"/>
<feColorMatrix type="matrix" values="0 0 0 0 1 0 0 0 0 1 0 0 0 0 1 0 0 0 0.4 0"/>
<feBlend mode="normal" in2="BackgroundImageFix" result="effect1_dropShadow_553_18"/>
<feBlend mode="normal" in="SourceGraphic" in2="effect1_dropShadow_553_18" result="shape"/>
</filter>
<filter id="filter1_d_553_18" x="98" y="1.7854" width="117" height="114.991" filterUnits="userSpaceOnUse" color-interpolation-filters="sRGB">
<feFlood flood-opacity="0" result="BackgroundImageFix"/>
<feColorMatrix in="SourceAlpha" type="matrix" values="0 0 0 0 0 0 0 0 0 0 0 0 0 0 0 0 0 0 127 0" result="hardAlpha"/>
<feOffset/>
<feGaussianBlur stdDeviation="5"/>
<feComposite in2="hardAlpha" operator="out"/>
<feColorMatrix type="matrix" values="0 0 0 0 1 0 0 0 0 1 0 0 0 0 1 0 0 0 0.4 0"/>
<feBlend mode="normal" in2="BackgroundImageFix" result="effect1_dropShadow_553_18"/>
<feBlend mode="normal" in="SourceGraphic" in2="effect1_dropShadow_553_18" result="shape"/>
</filter>
<filter id="filter2_d_553_18" x="0" y="0" width="109.594" height="117.997" filterUnits="userSpaceOnUse" color-interpolation-filters="sRGB">
<feFlood flood-opacity="0" result="BackgroundImageFix"/>
<feColorMatrix in="SourceAlpha" type="matrix" values="0 0 0 0 0 0 0 0 0 0 0 0 0 0 0 0 0 0 127 0" result="hardAlpha"/>
<feOffset/>
<feGaussianBlur stdDeviation="5"/>
<feComposite in2="hardAlpha" operator="out"/>
<feColorMatrix type="matrix" values="0 0 0 0 1 0 0 0 0 1 0 0 0 0 1 0 0 0 0.4 0"/>
<feBlend mode="normal" in2="BackgroundImageFix" result="effect1_dropShadow_553_18"/>
<feBlend mode="normal" in="SourceGraphic" in2="effect1_dropShadow_553_18" result="shape"/>
</filter>
</defs>
</svg>
